<?xml version="1.0" encoding="utf-8"?>
<!-- Generator: Adobe Illustrator 23.0.3, SVG Export Plug-In . SVG Version: 6.00 Build 0)  -->
<svg version="1.1" id="Layer_1" xmlns="http://www.w3.org/2000/svg" xmlns:xlink="http://www.w3.org/1999/xlink" x="0px" y="0px"
	 viewBox="0 0 512 512" style="enable-background:new 0 0 512 512;" xml:space="preserve">
<style type="text/css">
	.st0{fill:#FAFAFC;}
	.st1{fill:#FAFAFC;}
	.st2{fill:#FAFAFC;}
	.st3{fill:#FAFAFC;}
	.st4{fill:#FAFAFC;}
	.st5{fill:#FAFAFC;}
	.st6{fill:#FAFAFC;}
	.st7{fill:#FAFAFC;}
	.st8{fill:#FAFAFC;}
	.st9{fill:#FAFAFC;}
	.st10{fill:#FAFAFC;}
	.st11{fill:#FAFAFC;}
	.st12{fill:#FAFAFC;}
	.st13{fill:#FAFAFC;}
	.st14{fill:#FAFAFC;}
	.st15{fill:#FAFAFC;}
	.st16{fill:#FAFAFC;}
	.st17{fill:#FAFAFC;}
	.st18{fill:#FAFAFC;}
	.st19{fill:#FAFAFC;}
	.st20{fill:#FAFAFC;}
	.st21{fill:#FAFAFC;}
	.st22{fill:#CBC8DB;}
	.st23{fill:#FAFAFC;}
	.st24{fill:#FAFAFC;}
	.st25{fill:#FAFAFC;}
	.st26{fill:#FAFAFC;}
</style>
<circle class="st1" cx="256" cy="257.8" r="244.3"/>
<g>
	<g>
		<path class="st22" d="M317.9,182.6c0,4.3,0,8.6,0,12.9c0,3.8,0.6,7.2,3.4,10.1c2.3,2.3,2.7,5.3,2.4,8.4
			c-1.1,10.9-2.1,21.9-10.8,30c-1.2,1.2-1.4,2.6-1.3,4.1c0.5,12.7-6.2,22.5-14.2,31.2c-3.4,3.8-4.5,6.9-2.7,11.4
			c3,7.3,5.3,14.9,10.7,21.1c4.2,4.7,9.3,7.8,14.9,9.4c11.9,3.4,23.5,7.8,35.3,11.6c4.8,1.6,9.6,3.4,14.5,4.8
			c9.5,2.6,16.3,8.7,21.3,16.8c3.1,4.9,5.3,10.1,6.5,16c1.6,8.3,4.1,16.3,6.6,24.4c1.8,6-1.2,10.4-7.4,10.3
			c-12.3-0.2-24.5-0.3-36.8-0.3c-31.5,0-63,0.3-94.5,0.3c-35.8,0-71.7-0.3-107.5-0.2c-14.9,0.1-29.8-0.7-44.7,0.2
			c-4.9,0.3-7.9-4.4-6.4-9.3c2.8-9.3,4.9-18.9,7.5-28.2c4-14.3,12.3-25.3,27.6-30c14.7-4.5,29-9.9,43.6-14.9c2-0.7,4.3-0.7,6.3-1.4
			c10.5-3.7,17.6-10.8,21.7-21.1c0.9-2.2,1.6-4.3,2.5-6.5c3.1-7.4,2.1-9.3-3-15.4c-6.9-8.4-13.2-17.5-12.9-29.2
			c0.1-2.5-0.9-4.3-2.5-6.2c-8.5-9.6-9.4-21.4-9-33.5c0-0.8,0.2-1.8,0.7-2.3c6-5.6,5.1-12.8,4.8-20c-0.3-7.4-0.6-14.9,0.2-22.4
			c3.6-32.8,32.1-60.4,66.6-57.6c10.1,0.8,19.8,2.6,28.6,7.5c5.5,3,10.2,7.4,12.9,13.3c2.3,5.3,4.9,10.4,9,14.7
			c4.1,4.3,4.4,10.3,5.3,15.7C318.4,166.3,318.3,174.5,317.9,182.6z"/>
	</g>
</g>
</svg>
