<svg width="20" height="20" viewBox="0 0 20 20" fill="none" xmlns="http://www.w3.org/2000/svg">
<g clip-path="url(#clip0_1037_50)">
<path d="M12.357 12.357C13.6587 11.0553 13.6587 8.94473 12.357 7.64298C11.0552 6.34123 8.94466 6.34123 7.64291 7.64298C6.34116 8.94473 6.34116 11.0553 7.64291 12.357C8.94466 13.6588 11.0552 13.6588 12.357 12.357Z" stroke="#737185" stroke-width="1.5" stroke-linecap="round" stroke-linejoin="round"/>
<path d="M7.64337 17.0709C7.9529 16.7613 8.19844 16.3939 8.36596 15.9894C8.53348 15.585 8.6197 15.1515 8.6197 14.7138C8.6197 14.276 8.53348 13.8426 8.36596 13.4381C8.19844 13.0337 7.9529 12.6662 7.64337 12.3567C7.33383 12.0472 6.96636 11.8016 6.56193 11.6341C6.1575 11.4666 5.72403 11.3804 5.28628 11.3804C4.84853 11.3804 4.41507 11.4666 4.01064 11.6341C3.60621 11.8016 3.23874 12.0472 2.9292 12.3567" stroke="#737185" stroke-width="1.5" stroke-linecap="round" stroke-linejoin="round"/>
<path d="M12.3567 2.9292C12.0472 3.23874 11.8016 3.60621 11.6341 4.01064C11.4666 4.41507 11.3804 4.84853 11.3804 5.28628C11.3804 5.72403 11.4666 6.1575 11.6341 6.56193C11.8016 6.96636 12.0472 7.33383 12.3567 7.64337C12.6662 7.9529 13.0337 8.19844 13.4381 8.36596C13.8426 8.53348 14.276 8.6197 14.7138 8.6197C15.1515 8.6197 15.585 8.53348 15.9894 8.36596C16.3939 8.19844 16.7613 7.9529 17.0709 7.64337" stroke="#737185" stroke-width="1.5" stroke-linecap="round" stroke-linejoin="round"/>
</g>
<defs>
<clipPath id="clip0_1037_50">
<rect width="20" height="20" fill="white"/>
</clipPath>
</defs>
</svg>
