<?xml version="1.0" encoding="UTF-8" standalone="no"?> <svg width="24" height="64" viewBox="0 0 64 64" fill="none" xmlns="http://www.w3.org/2000/svg">
<path d="M61.19 31.0901C60.66 30.4001 48.02 14.0901 32 14.0901C15.98 14.0901 3.34001 30.4001 2.81001 31.0901C2.61051 31.3515 2.50244 31.6712 2.50244 32.0001C2.50244 32.3289 2.61051 32.6487 2.81001 32.9101C3.34001 33.6001 15.98 49.9101 32 49.9101C48.02 49.9101 60.66 33.5801 61.19 32.9101C61.3895 32.6487 61.4976 32.3289 61.4976 32.0001C61.4976 31.6712 61.3895 31.3515 61.19 31.0901V31.0901ZM32 46.9301C19.53 46.9301 8.80001 35.3701 5.94001 32.0001C8.80001 28.6301 19.53 17.0701 32 17.0701C44.47 17.0701 55.2 28.6301 58.06 32.0001C55.2 35.3701 44.47 46.9301 32 46.9301Z" fill="#8f8c9f"/>
<path d="M32 20.1401C29.6543 20.1401 27.3613 20.8357 25.411 22.1389C23.4606 23.4421 21.9405 25.2944 21.0428 27.4615C20.1452 29.6286 19.9103 32.0133 20.3679 34.3139C20.8255 36.6145 21.9551 38.7278 23.6137 40.3864C25.2724 42.0451 27.3856 43.1746 29.6862 43.6323C31.9869 44.0899 34.3715 43.855 36.5386 42.9573C38.7058 42.0597 40.5581 40.5396 41.8612 38.5892C43.1644 36.6388 43.86 34.3458 43.86 32.0001C43.8574 28.8555 42.607 25.8404 40.3834 23.6168C38.1598 21.3932 35.1447 20.1428 32 20.1401V20.1401ZM32 40.8601C30.2477 40.8601 28.5347 40.3405 27.0777 39.367C25.6206 38.3934 24.485 37.0097 23.8144 35.3907C23.1439 33.7718 22.9684 31.9903 23.3103 30.2716C23.6521 28.553 24.496 26.9743 25.7351 25.7352C26.9741 24.4961 28.5528 23.6522 30.2715 23.3104C31.9902 22.9685 33.7716 23.144 35.3906 23.8146C37.0095 24.4852 38.3933 25.6208 39.3668 27.0778C40.3404 28.5348 40.86 30.2478 40.86 32.0001C40.8547 34.3483 39.9196 36.5988 38.2592 38.2593C36.5987 39.9197 34.3482 40.8549 32 40.8601V40.8601Z" fill="#8f8c9f"/>
</svg>
