<svg width="20" height="20" viewBox="0 0 20 20" fill="none" xmlns="http://www.w3.org/2000/svg">
<g clip-path="url(#clip0_1037_3)">
<path d="M12.5416 7.11417L15.4875 4.16667H11.6666V2.5H18.3333V9.16667H16.6666V5.345L13.7191 8.2925C14.6807 9.55293 15.1273 11.1317 14.9686 12.709C14.8099 14.2864 14.0577 15.7445 12.8643 16.7881C11.6709 17.8317 10.1256 18.3828 8.54112 18.3298C6.95668 18.2768 5.45158 17.6237 4.33059 16.5027C3.20959 15.3817 2.55648 13.8766 2.50349 12.2922C2.45051 10.7077 3.00162 9.16238 4.04522 7.969C5.08882 6.77562 6.54692 6.02342 8.12428 5.8647C9.70164 5.70599 11.2804 6.15262 12.5408 7.11417H12.5416ZM8.74997 16.6667C9.96555 16.6667 11.1313 16.1838 11.9909 15.3242C12.8504 14.4647 13.3333 13.2989 13.3333 12.0833C13.3333 10.8678 12.8504 9.70197 11.9909 8.84243C11.1313 7.98288 9.96555 7.5 8.74997 7.5C7.5344 7.5 6.36861 7.98288 5.50907 8.84243C4.64952 9.70197 4.16664 10.8678 4.16664 12.0833C4.16664 13.2989 4.64952 14.4647 5.50907 15.3242C6.36861 16.1838 7.5344 16.6667 8.74997 16.6667Z" fill="#737185"/>
</g>
<defs>
<clipPath id="clip0_1037_3">
<rect width="20" height="20" fill="white"/>
</clipPath>
</defs>
</svg>
