<svg width="14" height="18" viewBox="0 0 14 18" fill="none" xmlns="http://www.w3.org/2000/svg">
<path d="M7.00004 9C6.08337 9 5.33337 8.25 5.33337 7.33334C5.33337 6.41667 6.08337 5.66667 7.00004 5.66667C7.91671 5.66667 8.66671 6.41667 8.66671 7.33334C8.66671 8.25 7.91671 9 7.00004 9ZM12 7.5C12 4.475 9.79171 2.33334 7.00004 2.33334C4.20837 2.33334 2.00004 4.475 2.00004 7.5C2.00004 9.45 3.62504 12.0333 7.00004 15.1167C10.375 12.0333 12 9.45 12 7.5ZM7.00004 0.666672C10.5 0.666672 13.6667 3.35 13.6667 7.5C13.6667 10.2667 11.4417 13.5417 7.00004 17.3333C2.55837 13.5417 0.333374 10.2667 0.333374 7.5C0.333374 3.35 3.50004 0.666672 7.00004 0.666672Z" fill="#282828"/>
</svg>
