<svg width="139" height="36" viewBox="0 0 139 36" fill="none" xmlns="http://www.w3.org/2000/svg">
<rect width="137" height="32" transform="translate(2 2)" fill="#FFCB04"/>
<path d="M7.12892 27.2429V10.9259H10.0131V17.0289H10.1326C10.2813 16.7314 10.4911 16.4154 10.762 16.0808C11.0329 15.7408 11.3994 15.4513 11.8615 15.2123C12.3236 14.968 12.9132 14.8458 13.6302 14.8458C14.5757 14.8458 15.4282 15.0875 16.1877 15.5709C16.9526 16.0489 17.5581 16.758 18.0043 17.6981C18.4557 18.6329 18.6815 19.7802 18.6815 21.14C18.6815 22.4838 18.461 23.6258 18.0202 24.5659C17.5793 25.5061 16.9791 26.2231 16.2196 26.7171C15.46 27.2111 14.5996 27.458 13.6382 27.458C12.9371 27.458 12.3555 27.3412 11.8934 27.1075C11.4313 26.8738 11.0594 26.5923 10.7779 26.2629C10.5017 25.9283 10.2866 25.6123 10.1326 25.3148H9.96527V27.2429H7.12892ZM9.95731 21.124C9.95731 21.9155 10.0688 22.6086 10.2919 23.2035C10.5203 23.7984 10.847 24.2632 11.2719 24.5978C11.7021 24.9271 12.2227 25.0918 12.8335 25.0918C13.4709 25.0918 14.0047 24.9218 14.4349 24.5818C14.8652 24.2366 15.1892 23.7665 15.4069 23.1716C15.63 22.5714 15.7416 21.8889 15.7416 21.124C15.7416 20.3645 15.6327 19.6899 15.4149 19.1004C15.1971 18.5108 14.8731 18.0487 14.4429 17.7141C14.0127 17.3794 13.4762 17.2121 12.8335 17.2121C12.2174 17.2121 11.6942 17.3741 11.2639 17.6981C10.8337 18.0221 10.507 18.4763 10.284 19.0605C10.0662 19.6448 9.95731 20.3326 9.95731 21.124Z" fill="#403200"/>
<path d="M25.2068 11.7623V13.9931H18.1717V11.7623H25.2068ZM19.9086 8.8303H22.7927V20.3191C22.7927 20.7069 22.8512 21.0043 22.968 21.2115C23.0902 21.4133 23.2495 21.5514 23.4461 21.6258C23.6426 21.7001 23.8604 21.7373 24.0994 21.7373C24.28 21.7373 24.4446 21.724 24.5934 21.6975C24.7474 21.6709 24.8642 21.647 24.9439 21.6258L25.4299 23.8805C25.2759 23.9336 25.0555 23.992 24.7686 24.0558C24.4871 24.1195 24.1419 24.1567 23.7329 24.1673C23.0105 24.1886 22.3599 24.0797 21.7809 23.8407C21.2019 23.5963 20.7425 23.2192 20.4026 22.7093C20.0679 22.1994 19.9033 21.562 19.9086 20.7972V8.8303Z" fill="#403200"/>
<path d="M2.21124 10.4422C2.84625 9.29211 3.61724 8.2218 4.50713 7.25501C10.5337 0.707673 20.6042 0.210685 27.0001 6.14499C33.396 12.0793 33.6954 22.1976 27.6688 28.745C21.6422 35.2923 11.5718 35.7893 5.17587 29.855C3.8928 28.6646 2.81957 27.2641 2 25.7109" stroke="#403200" stroke-width="2.6412" stroke-miterlimit="22.9256"/>
<path d="M45.7216 26V8.54545H48.8068V15.0739H48.9347C49.0938 14.7557 49.3182 14.4176 49.608 14.0597C49.8977 13.696 50.2898 13.3864 50.7841 13.1307C51.2784 12.8693 51.9091 12.7386 52.6761 12.7386C53.6875 12.7386 54.5994 12.9972 55.4119 13.5142C56.2301 14.0256 56.8778 14.7841 57.3551 15.7898C57.8381 16.7898 58.0795 18.017 58.0795 19.4716C58.0795 20.9091 57.8438 22.1307 57.3722 23.1364C56.9006 24.142 56.2585 24.9091 55.446 25.4375C54.6335 25.9659 53.7131 26.2301 52.6847 26.2301C51.9347 26.2301 51.3125 26.1051 50.8182 25.8551C50.3239 25.6051 49.9261 25.304 49.625 24.9517C49.3295 24.5937 49.0994 24.2557 48.9347 23.9375H48.7557V26H45.7216ZM48.7472 19.4545C48.7472 20.3011 48.8665 21.0426 49.1051 21.679C49.3494 22.3153 49.6989 22.8125 50.1534 23.1705C50.6136 23.5227 51.1705 23.6989 51.8239 23.6989C52.5057 23.6989 53.0767 23.517 53.5369 23.1534C53.9972 22.7841 54.3438 22.2812 54.5767 21.6449C54.8153 21.0028 54.9347 20.2727 54.9347 19.4545C54.9347 18.642 54.8182 17.9205 54.5852 17.2898C54.3523 16.6591 54.0057 16.1648 53.5455 15.8068C53.0852 15.4489 52.5114 15.2699 51.8239 15.2699C51.1648 15.2699 50.6051 15.4432 50.1449 15.7898C49.6847 16.1364 49.3352 16.6222 49.0966 17.2472C48.8636 17.8722 48.7472 18.608 48.7472 19.4545ZM66.4979 26.2557C65.1854 26.2557 64.0518 25.983 63.0973 25.4375C62.1484 24.8864 61.4183 24.108 60.907 23.1023C60.3956 22.0909 60.1399 20.9006 60.1399 19.5312C60.1399 18.1847 60.3956 17.0028 60.907 15.9858C61.424 14.9631 62.1456 14.1676 63.0717 13.5994C63.9979 13.0256 65.0859 12.7386 66.3359 12.7386C67.1428 12.7386 67.9041 12.8693 68.62 13.1307C69.3416 13.3864 69.978 13.7841 70.5291 14.3239C71.0859 14.8636 71.5234 15.5511 71.8416 16.3864C72.1598 17.2159 72.3189 18.2045 72.3189 19.3523V20.2983H61.5888V18.2188H69.3615C69.3558 17.6278 69.228 17.1023 68.978 16.642C68.728 16.1761 68.3786 15.8097 67.9297 15.5426C67.4865 15.2756 66.9695 15.142 66.3786 15.142C65.7479 15.142 65.1939 15.2955 64.7166 15.6023C64.2393 15.9034 63.8672 16.3011 63.6001 16.7955C63.3388 17.2841 63.2053 17.821 63.1996 18.4062V20.2216C63.1996 20.983 63.3388 21.6364 63.6172 22.1818C63.8956 22.7216 64.2848 23.1364 64.7848 23.4261C65.2848 23.7102 65.87 23.8523 66.5405 23.8523C66.9893 23.8523 67.3956 23.7898 67.7592 23.6648C68.1229 23.5341 68.4382 23.3438 68.7053 23.0938C68.9723 22.8438 69.174 22.5341 69.3104 22.1648L72.1911 22.4886C72.0092 23.25 71.6626 23.9148 71.1513 24.483C70.6456 25.0455 69.9979 25.483 69.2081 25.7955C68.4183 26.1023 67.5149 26.2557 66.4979 26.2557ZM74.929 26V12.9091H77.9205V15.0909H78.0568C78.2955 14.3352 78.7045 13.7528 79.2841 13.3438C79.8693 12.929 80.5369 12.7216 81.2869 12.7216C81.4574 12.7216 81.6477 12.7301 81.858 12.7472C82.0739 12.7585 82.2528 12.7784 82.3949 12.8068V15.6449C82.2642 15.5994 82.0568 15.5597 81.7727 15.5256C81.4943 15.4858 81.2244 15.4659 80.9631 15.4659C80.4006 15.4659 79.8949 15.5881 79.446 15.8324C79.0028 16.071 78.6534 16.4034 78.3977 16.8295C78.142 17.2557 78.0142 17.7472 78.0142 18.304V26H74.929ZM84.4446 26V12.9091H87.4361V15.0909H87.5724C87.8111 14.3352 88.2202 13.7528 88.7997 13.3438C89.3849 12.929 90.0526 12.7216 90.8026 12.7216C90.973 12.7216 91.1634 12.7301 91.3736 12.7472C91.5895 12.7585 91.7685 12.7784 91.9105 12.8068V15.6449C91.7798 15.5994 91.5724 15.5597 91.2884 15.5256C91.0099 15.4858 90.7401 15.4659 90.4787 15.4659C89.9162 15.4659 89.4105 15.5881 88.9616 15.8324C88.5185 16.071 88.169 16.4034 87.9134 16.8295C87.6577 17.2557 87.5298 17.7472 87.5298 18.304V26H84.4446ZM99.1314 26.2557C97.853 26.2557 96.745 25.9744 95.8075 25.4119C94.87 24.8494 94.1428 24.0625 93.6257 23.0511C93.1143 22.0398 92.8587 20.858 92.8587 19.5057C92.8587 18.1534 93.1143 16.9687 93.6257 15.9517C94.1428 14.9347 94.87 14.1449 95.8075 13.5824C96.745 13.0199 97.853 12.7386 99.1314 12.7386C100.41 12.7386 101.518 13.0199 102.455 13.5824C103.393 14.1449 104.117 14.9347 104.629 15.9517C105.146 16.9687 105.404 18.1534 105.404 19.5057C105.404 20.858 105.146 22.0398 104.629 23.0511C104.117 24.0625 103.393 24.8494 102.455 25.4119C101.518 25.9744 100.41 26.2557 99.1314 26.2557ZM99.1484 23.7841C99.8416 23.7841 100.421 23.5937 100.887 23.2131C101.353 22.8267 101.7 22.3097 101.927 21.6619C102.16 21.0142 102.276 20.2926 102.276 19.4972C102.276 18.696 102.16 17.9716 101.927 17.3239C101.7 16.6705 101.353 16.1506 100.887 15.7642C100.421 15.3778 99.8416 15.1847 99.1484 15.1847C98.4382 15.1847 97.8473 15.3778 97.3757 15.7642C96.9098 16.1506 96.5604 16.6705 96.3274 17.3239C96.1001 17.9716 95.9865 18.696 95.9865 19.4972C95.9865 20.2926 96.1001 21.0142 96.3274 21.6619C96.5604 22.3097 96.9098 22.8267 97.3757 23.2131C97.8473 23.5937 98.4382 23.7841 99.1484 23.7841Z" fill="#403200"/>
<path d="M113.564 18.3636V19.5568H109.393V18.3636H113.564ZM110.511 16.5341H111.998V23.7578C111.998 24.0462 112.041 24.2633 112.127 24.4091C112.213 24.5516 112.324 24.6494 112.46 24.7024C112.599 24.7521 112.75 24.777 112.913 24.777C113.032 24.777 113.136 24.7687 113.226 24.7521C113.315 24.7356 113.385 24.7223 113.435 24.7124L113.703 25.9403C113.617 25.9735 113.494 26.0066 113.335 26.0398C113.176 26.0762 112.977 26.0961 112.739 26.0994C112.348 26.1061 111.983 26.0365 111.645 25.8906C111.307 25.7448 111.033 25.5194 110.825 25.2145C110.616 24.9096 110.511 24.5268 110.511 24.0661V16.5341ZM118.417 26.1541C117.665 26.1541 117.017 25.9934 116.474 25.6719C115.933 25.3471 115.516 24.8913 115.221 24.3047C114.929 23.7147 114.783 23.0237 114.783 22.2315C114.783 21.4493 114.929 20.7599 115.221 20.1634C115.516 19.5668 115.927 19.1011 116.454 18.7663C116.984 18.4316 117.604 18.2642 118.313 18.2642C118.744 18.2642 119.162 18.3355 119.566 18.478C119.97 18.6205 120.333 18.8442 120.655 19.1491C120.976 19.4541 121.23 19.8501 121.415 20.3374C121.601 20.8213 121.694 21.4096 121.694 22.1023V22.6293H115.623V21.5156H120.237C120.237 21.1245 120.157 20.7782 119.998 20.4766C119.839 20.1716 119.616 19.9313 119.327 19.7557C119.042 19.58 118.707 19.4922 118.323 19.4922C117.905 19.4922 117.541 19.5949 117.229 19.8004C116.921 20.0026 116.682 20.2678 116.513 20.5959C116.348 20.9207 116.265 21.2737 116.265 21.6548V22.5249C116.265 23.0353 116.354 23.4695 116.533 23.8274C116.715 24.1854 116.969 24.4588 117.294 24.6477C117.619 24.8333 117.998 24.9261 118.432 24.9261C118.714 24.9261 118.971 24.8864 119.203 24.8068C119.435 24.724 119.635 24.6013 119.805 24.4389C119.974 24.2765 120.103 24.076 120.192 23.8374L121.599 24.0909C121.487 24.5052 121.284 24.8681 120.993 25.1797C120.704 25.4879 120.341 25.7282 119.904 25.9006C119.47 26.0696 118.974 26.1541 118.417 26.1541ZM126.56 26.1541C125.821 26.1541 125.184 25.9867 124.651 25.652C124.12 25.3139 123.713 24.8482 123.428 24.255C123.143 23.6617 123 22.9822 123 22.2166C123 21.4411 123.146 20.7566 123.438 20.1634C123.729 19.5668 124.14 19.1011 124.67 18.7663C125.201 18.4316 125.826 18.2642 126.545 18.2642C127.125 18.2642 127.642 18.3719 128.096 18.5874C128.55 18.7995 128.916 19.0978 129.195 19.4822C129.476 19.8667 129.644 20.3158 129.697 20.8295H128.25C128.17 20.4716 127.988 20.1634 127.703 19.9048C127.421 19.6463 127.044 19.517 126.57 19.517C126.155 19.517 125.792 19.6264 125.481 19.8452C125.173 20.0606 124.932 20.3688 124.76 20.7699C124.588 21.1676 124.501 21.6383 124.501 22.1818C124.501 22.7386 124.586 23.2192 124.755 23.6236C124.924 24.0279 125.163 24.3411 125.471 24.5632C125.782 24.7853 126.149 24.8963 126.57 24.8963C126.851 24.8963 127.107 24.8449 127.335 24.7422C127.567 24.6361 127.761 24.4853 127.917 24.2898C128.076 24.0942 128.187 23.8589 128.25 23.5838H129.697C129.644 24.0777 129.483 24.5185 129.214 24.9062C128.946 25.294 128.586 25.599 128.136 25.821C127.688 26.0431 127.163 26.1541 126.56 26.1541ZM132.773 21.4659V26H131.286V15.8182H132.753V19.6065H132.847C133.026 19.1955 133.3 18.8691 133.668 18.6271C134.036 18.3852 134.516 18.2642 135.11 18.2642C135.633 18.2642 136.091 18.3719 136.482 18.5874C136.876 18.8028 137.181 19.1243 137.396 19.5518C137.615 19.9761 137.725 20.5064 137.725 21.1428V26H136.238V21.3217C136.238 20.7616 136.094 20.3274 135.806 20.0192C135.517 19.7076 135.116 19.5518 134.602 19.5518C134.251 19.5518 133.936 19.6264 133.658 19.7756C133.383 19.9247 133.166 20.1435 133.007 20.4318C132.851 20.7169 132.773 21.0616 132.773 21.4659Z" fill="#735B00"/>
</svg>
