<svg width="156" height="154" viewBox="0 0 156 154" fill="none" xmlns="http://www.w3.org/2000/svg">
<path fill-rule="evenodd" clip-rule="evenodd" d="M77.9996 3C119.67 3 153.451 36.1309 153.451 76.9999C153.451 117.869 119.67 151 77.9996 151C36.3293 151 2.54883 117.869 2.54883 76.9999C2.54883 36.1309 36.3293 3 77.9996 3Z" fill="white" stroke="#F2F1F7" stroke-width="5" stroke-miterlimit="22.9256"/>
<path d="M59.3707 108.251C60.648 108.599 61.7317 108.831 62.6219 108.986C63.512 109.141 64.3057 109.219 65.0217 109.219C68.5053 109.219 71.4082 107.806 73.7498 104.961C76.0917 102.136 77.2528 98.5551 77.2528 94.2008C77.2528 90.2722 76.2852 87.1175 74.3305 84.7177C72.3951 82.3181 69.8794 81.1182 66.7829 81.1182C65.9119 81.1182 64.867 81.3308 63.6476 81.7762C62.4092 82.2019 60.9963 82.8793 59.3707 83.7889V108.251ZM41.6045 122.456V39.0834L59.3707 36.645V71.1513C61.6349 69.9902 63.8218 69.1192 65.9119 68.5194C68.0214 67.9387 70.0535 67.6483 72.008 67.6483C78.9557 67.6483 84.5876 70.1061 88.9034 75.0412C93.2189 79.9762 95.3673 86.4015 95.3673 94.3362C95.3673 102.735 92.8127 109.49 87.6841 114.638C82.5749 119.766 75.8207 122.34 67.4795 122.34C66.4152 122.34 65.2347 122.282 63.8992 122.147C62.5833 122.011 61.093 121.817 59.4286 121.546L52.9648 120.018L41.6045 122.456Z" fill="#F2F1F7"/>
<path d="M96.9844 86.0874V65.6122H89.5527V52.1427H96.9844V36.8151L115.099 34.3765V52.1427H127.175V65.6122H115.099V87.3068C115.099 91.9126 115.718 95.2606 116.976 97.3121C118.234 99.3634 120.595 101.279 124.04 103.002L103.835 104.395C101.3 103.176 99.539 101.376 98.5132 98.9765C97.4874 96.5767 96.9844 92.2803 96.9844 86.0874Z" fill="#F2F1F7"/>
</svg>
