<svg width="171" height="53" viewBox="0 0 171 53" fill="none" xmlns="http://www.w3.org/2000/svg">
<path d="M170.671 0.870361H0V53H170.671V0.870361Z" fill="#FCFCFA"/>
<path d="M58.8704 34.7917C59.2148 34.8856 59.5069 34.9482 59.7469 34.9899C59.9869 35.0317 60.2008 35.0526 60.3939 35.0526C61.3331 35.0526 62.1158 34.6717 62.7471 33.9047C63.3784 33.143 63.6915 32.1777 63.6915 31.0037C63.6915 29.9445 63.4306 29.0941 62.9036 28.4471C62.3818 27.8001 61.7036 27.4766 60.8687 27.4766C60.6339 27.4766 60.3522 27.534 60.0235 27.654C59.6895 27.7688 59.3086 27.9514 58.8704 28.1966V34.7917ZM54.0806 38.6214V16.1439L58.8704 15.4865V24.7895C59.4808 24.4764 60.0704 24.2416 60.6339 24.0799C61.2027 23.9234 61.7505 23.8451 62.2775 23.8451C64.1506 23.8451 65.669 24.5077 66.8325 25.8382C67.996 27.1687 68.5752 28.901 68.5752 31.0402C68.5752 33.3047 67.8864 35.1256 66.5037 36.5135C65.1263 37.8962 63.3053 38.5901 61.0565 38.5901C60.7696 38.5901 60.4513 38.5744 60.0913 38.538C59.7365 38.5015 59.3347 38.4493 58.886 38.3762L57.1434 37.964L54.0806 38.6214ZM75.165 29.7932L81.134 29.6106V29.3966C81.134 28.6714 80.8783 28.0766 80.3722 27.6122C79.8609 27.1478 79.2191 26.913 78.4469 26.913C77.586 26.913 76.8607 27.1635 76.2816 27.6696C75.7024 28.1758 75.332 28.8854 75.165 29.7932ZM84.2959 33.049L83.7636 37.2805C82.8245 37.724 81.901 38.058 80.9931 38.2719C80.0853 38.4858 79.1722 38.5901 78.2434 38.5901C75.9476 38.5901 74.1006 37.9327 72.6919 36.6126C71.2883 35.2926 70.5839 33.5708 70.5839 31.4524C70.5839 29.2401 71.351 27.3722 72.8901 25.8487C74.4293 24.3252 76.3025 23.5633 78.5043 23.5633C80.3878 23.5633 81.9323 24.1217 83.1427 25.2382C84.3481 26.3548 84.9533 27.8 84.9533 29.5741C84.9533 29.8454 84.9324 30.2836 84.8906 30.8889L84.875 30.9776L84.4471 31.5985L75.0606 31.8594C75.1337 32.7881 75.5198 33.5447 76.219 34.1238C76.9234 34.703 77.8104 34.9899 78.8747 34.9899C79.6313 34.9899 80.4661 34.8282 81.3896 34.4995C82.308 34.176 83.2784 33.6908 84.2959 33.049ZM92.5292 37.964H87.7082V24.1895H92.1953L92.284 26.6053C92.8319 25.64 93.4788 24.9408 94.2146 24.5025C94.9502 24.0643 95.8685 23.8451 96.9695 23.8451H97.3503V28.9792H96.8494H96.312C94.8198 28.9792 93.8128 29.1514 93.3015 29.4906C92.7849 29.8349 92.5292 30.6542 92.5292 31.9585V37.964ZM104.712 37.964H99.8913V24.1895H104.378L104.467 26.6053C105.015 25.64 105.662 24.9408 106.398 24.5025C107.133 24.0643 108.052 23.8451 109.153 23.8451H109.533V28.9792H109.033H108.495C107.003 28.9792 105.996 29.1514 105.485 29.4906C104.968 29.8349 104.712 30.6542 104.712 31.9585V37.964ZM116.05 31.0768C116.05 32.2507 116.301 33.1951 116.807 33.9099C117.313 34.63 117.96 34.9899 118.743 34.9899C119.53 34.9899 120.172 34.63 120.678 33.9047C121.184 33.1794 121.435 32.2403 121.435 31.0768C121.435 29.9237 121.184 28.9845 120.678 28.254C120.172 27.5288 119.53 27.1635 118.743 27.1635C117.96 27.1635 117.313 27.5236 116.807 28.2488C116.301 28.974 116.05 29.9132 116.05 31.0768ZM111.167 31.0663C111.167 28.8801 111.881 27.0749 113.311 25.6556C114.746 24.2416 116.551 23.532 118.743 23.532C120.944 23.532 122.76 24.2416 124.195 25.6556C125.63 27.0749 126.35 28.8801 126.35 31.0663C126.35 33.2577 125.63 35.0682 124.195 36.4875C122.76 37.9118 120.944 38.6214 118.743 38.6214C116.562 38.6214 114.756 37.9118 113.321 36.4875C111.887 35.0682 111.167 33.2577 111.167 31.0663Z" fill="#403200"/>
<path d="M128.799 35.4553V32.4754H127.717V30.5151H128.799V28.2843L131.435 27.9295V30.5151H133.193V32.4754H131.435V35.6327C131.435 36.303 131.525 36.7903 131.708 37.0888C131.891 37.3873 132.235 37.6662 132.736 37.9168L129.796 38.1196C129.427 37.9422 129.171 37.6803 129.021 37.331C128.872 36.9818 128.799 36.3565 128.799 35.4553ZM136.358 33.54L139.58 33.4414V33.3259C139.58 32.9345 139.442 32.6134 139.169 32.3627C138.893 32.112 138.547 31.9853 138.13 31.9853C137.665 31.9853 137.274 32.1205 136.961 32.3936C136.648 32.6669 136.448 33.0499 136.358 33.54ZM141.287 35.2975L141 37.5817C140.493 37.8211 139.994 38.0014 139.504 38.1168C139.014 38.2323 138.521 38.2886 138.02 38.2886C136.781 38.2886 135.784 37.9338 135.023 37.2212C134.266 36.5086 133.885 35.5792 133.885 34.4356C133.885 33.2415 134.299 32.2331 135.13 31.4107C135.961 30.5883 136.972 30.1771 138.161 30.1771C139.178 30.1771 140.011 30.4784 140.665 31.0812C141.315 31.6839 141.642 32.4641 141.642 33.4217C141.642 33.5682 141.631 33.8047 141.608 34.1314L141.6 34.1793L141.369 34.5145L136.302 34.6553C136.341 35.1567 136.55 35.5651 136.927 35.8777C137.308 36.1904 137.786 36.3453 138.361 36.3453C138.769 36.3453 139.22 36.2579 139.718 36.0805C140.214 35.9059 140.738 35.6439 141.287 35.2975ZM149.616 37.5282C149.159 37.7873 148.709 37.9789 148.267 38.1028C147.824 38.2267 147.368 38.2886 146.901 38.2886C145.661 38.2886 144.645 37.9168 143.85 37.1733C143.053 36.4325 142.656 35.4918 142.656 34.3512C142.656 33.171 143.084 32.1768 143.94 31.3769C144.797 30.577 145.87 30.1771 147.163 30.1771C147.636 30.1771 148.1 30.2306 148.551 30.3376C149.002 30.4446 149.438 30.6052 149.855 30.8221L149.565 33.1345C149.159 32.8866 148.768 32.6978 148.391 32.5683C148.013 32.4387 147.664 32.374 147.34 32.374C146.757 32.374 146.273 32.5514 145.887 32.9063C145.501 33.2612 145.309 33.7005 145.309 34.2272C145.309 34.7905 145.487 35.2412 145.844 35.582C146.202 35.9227 146.673 36.0918 147.256 36.0918C147.619 36.0918 148.008 36.0129 148.419 35.858C148.833 35.7002 149.312 35.4468 149.855 35.0947L149.616 37.5282ZM153.959 37.9507H151.373V26.172L153.959 25.8171V31.5628C154.322 31.1404 154.711 30.8277 155.128 30.6221C155.542 30.4165 155.992 30.3123 156.477 30.3123C157.263 30.3123 157.86 30.5376 158.265 30.9883C158.674 31.4389 158.876 32.0951 158.876 32.9626V37.9507H156.308V33.6893C156.308 33.2978 156.229 33.0049 156.068 32.8077C155.911 32.6078 155.674 32.5092 155.359 32.5092C154.911 32.5092 154.564 32.6613 154.322 32.9626C154.08 33.2668 153.959 33.7061 153.959 34.2835V37.9507Z" fill="#403200"/>
<path fill-rule="evenodd" clip-rule="evenodd" d="M27.7781 8.69647C38.4961 8.69647 47.1847 17.218 47.1847 27.7298C47.1847 38.2417 38.4961 46.7632 27.7781 46.7632C17.0602 46.7632 8.37158 38.2417 8.37158 27.7298C8.37158 17.218 17.0602 8.69647 27.7781 8.69647Z" stroke="#FFCB04" stroke-width="2.81276" stroke-miterlimit="22.9256"/>
<path d="M22.9871 35.7679C23.3156 35.8574 23.5944 35.9171 23.8233 35.957C24.0523 35.9968 24.2564 36.0167 24.4406 36.0167C25.3366 36.0167 26.0832 35.6534 26.6855 34.9216C27.2879 34.1949 27.5865 33.274 27.5865 32.154C27.5865 31.1435 27.3376 30.3321 26.8349 29.7149C26.3371 29.0977 25.69 28.7891 24.8936 28.7891C24.6695 28.7891 24.4008 28.8438 24.0872 28.9583C23.7686 29.0678 23.4052 29.2421 22.9871 29.476V35.7679ZM18.4175 39.4215V17.9774L22.9871 17.3502V26.2255C23.5695 25.9269 24.1319 25.7028 24.6695 25.5486C25.2121 25.3992 25.7348 25.3245 26.2375 25.3245C28.0245 25.3245 29.4731 25.9567 30.5831 27.226C31.6931 28.4953 32.2457 30.148 32.2457 32.1888C32.2457 34.3492 31.5886 36.0864 30.2695 37.4105C28.9554 38.7296 27.2182 39.3917 25.0727 39.3917C24.799 39.3917 24.4954 39.3767 24.1518 39.3419C23.8134 39.307 23.4301 39.2572 23.002 39.1875L21.3394 38.7943L18.4175 39.4215Z" fill="#FFCB04"/>
<path d="M32.6615 30.0673V24.8009H30.75V21.3365H32.6615V17.3941L37.3206 16.7668V21.3365H40.4267V24.8009H37.3206V30.3809C37.3206 31.5656 37.4799 32.4267 37.8034 32.9544C38.127 33.482 38.7343 33.9748 39.6203 34.4179L34.4236 34.7762C33.7715 34.4627 33.3185 33.9997 33.0547 33.3825C32.7909 32.7652 32.6615 31.6602 32.6615 30.0673Z" fill="#FFCB04"/>
</svg>
