<svg width="171" height="54" viewBox="0 0 171 54" fill="none" xmlns="http://www.w3.org/2000/svg">
<path d="M170.671 0.935059H0V53.0647H170.671V0.935059Z" fill="#FFCB04"/>
<path d="M58.8704 34.8565C59.2148 34.9503 59.5069 35.013 59.7469 35.0547C59.9869 35.0965 60.2008 35.1174 60.3939 35.1174C61.3331 35.1174 62.1158 34.7364 62.7471 33.9695C63.3784 33.2077 63.6915 32.2424 63.6915 31.0685C63.6915 30.0093 63.4306 29.1588 62.9036 28.5118C62.3818 27.8648 61.7036 27.5413 60.8687 27.5413C60.6339 27.5413 60.3522 27.5987 60.0235 27.7188C59.6895 27.8335 59.3086 28.0161 58.8704 28.2614V34.8565ZM54.0806 38.6862V16.2087L58.8704 15.5513V24.8543C59.4808 24.5412 60.0704 24.3064 60.6339 24.1447C61.2027 23.9881 61.7505 23.9099 62.2775 23.9099C64.1506 23.9099 65.669 24.5725 66.8325 25.903C67.996 27.2335 68.5752 28.9657 68.5752 31.105C68.5752 33.3694 67.8864 35.1903 66.5037 36.5783C65.1263 37.9609 63.3053 38.6549 61.0565 38.6549C60.7696 38.6549 60.4513 38.6392 60.0913 38.6027C59.7365 38.5662 59.3347 38.514 58.886 38.441L57.1434 38.0288L54.0806 38.6862ZM75.165 29.858L81.134 29.6754V29.4614C81.134 28.7362 80.8783 28.1414 80.3722 27.677C79.8609 27.2126 79.2191 26.9778 78.4469 26.9778C77.586 26.9778 76.8607 27.2283 76.2816 27.7344C75.7024 28.2405 75.332 28.9501 75.165 29.858ZM84.2959 33.1138L83.7636 37.3453C82.8245 37.7888 81.901 38.1227 80.9931 38.3366C80.0853 38.5505 79.1722 38.6549 78.2434 38.6549C75.9476 38.6549 74.1006 37.9975 72.6919 36.6774C71.2883 35.3574 70.5839 33.6355 70.5839 31.5172C70.5839 29.3049 71.351 27.437 72.8901 25.9135C74.4293 24.3899 76.3025 23.6281 78.5043 23.6281C80.3878 23.6281 81.9323 24.1864 83.1427 25.303C84.3481 26.4195 84.9533 27.8648 84.9533 29.6388C84.9533 29.9102 84.9324 30.3484 84.8906 30.9536L84.875 31.0424L84.4471 31.6633L75.0606 31.9242C75.1337 32.8529 75.5198 33.6094 76.219 34.1886C76.9234 34.7677 77.8104 35.0547 78.8747 35.0547C79.6313 35.0547 80.4661 34.893 81.3896 34.5643C82.308 34.2408 83.2784 33.7556 84.2959 33.1138ZM92.5292 38.0288H87.7082V24.2542H92.1953L92.284 26.67C92.8319 25.7048 93.4788 25.0056 94.2146 24.5673C94.9502 24.129 95.8685 23.9099 96.9695 23.9099H97.3503V29.044H96.8494H96.312C94.8198 29.044 93.8128 29.2162 93.3015 29.5553C92.7849 29.8997 92.5292 30.7189 92.5292 32.0233V38.0288ZM104.712 38.0288H99.8913V24.2542H104.378L104.467 26.67C105.015 25.7048 105.662 25.0056 106.398 24.5673C107.133 24.129 108.052 23.9099 109.153 23.9099H109.533V29.044H109.033H108.495C107.003 29.044 105.996 29.2162 105.485 29.5553C104.968 29.8997 104.712 30.7189 104.712 32.0233V38.0288ZM116.05 31.1415C116.05 32.3155 116.301 33.2599 116.807 33.9747C117.313 34.6947 117.96 35.0547 118.743 35.0547C119.53 35.0547 120.172 34.6947 120.678 33.9695C121.184 33.2442 121.435 32.305 121.435 31.1415C121.435 29.9884 121.184 29.0493 120.678 28.3188C120.172 27.5935 119.53 27.2283 118.743 27.2283C117.96 27.2283 117.313 27.5883 116.807 28.3136C116.301 29.0388 116.05 29.978 116.05 31.1415ZM111.167 31.1311C111.167 28.9449 111.881 27.1396 113.311 25.7204C114.746 24.3064 116.551 23.5968 118.743 23.5968C120.944 23.5968 122.76 24.3064 124.195 25.7204C125.63 27.1396 126.35 28.9449 126.35 31.1311C126.35 33.3225 125.63 35.133 124.195 36.5522C122.76 37.9766 120.944 38.6862 118.743 38.6862C116.562 38.6862 114.756 37.9766 113.321 36.5522C111.887 35.133 111.167 33.3225 111.167 31.1311Z" fill="#403200"/>
<path d="M128.799 35.52V32.5401H127.717V30.5798H128.799V28.349L131.435 27.9942V30.5798H133.193V32.5401H131.435V35.6974C131.435 36.3677 131.525 36.855 131.708 37.1535C131.891 37.452 132.235 37.7309 132.736 37.9815L129.796 38.1843C129.427 38.0069 129.171 37.745 129.021 37.3957C128.872 37.0465 128.799 36.4212 128.799 35.52ZM136.358 33.6047L139.58 33.5061V33.3906C139.58 32.9992 139.442 32.6781 139.169 32.4274C138.893 32.1767 138.547 32.05 138.13 32.05C137.665 32.05 137.274 32.1852 136.961 32.4583C136.648 32.7316 136.448 33.1146 136.358 33.6047ZM141.287 35.3622L141 37.6464C140.493 37.8858 139.994 38.0661 139.504 38.1815C139.014 38.297 138.521 38.3533 138.02 38.3533C136.781 38.3533 135.784 37.9985 135.023 37.2859C134.266 36.5733 133.885 35.6439 133.885 34.5003C133.885 33.3062 134.299 32.2978 135.13 31.4754C135.961 30.653 136.972 30.2418 138.161 30.2418C139.178 30.2418 140.011 30.5431 140.665 31.1459C141.315 31.7486 141.642 32.5288 141.642 33.4864C141.642 33.6329 141.631 33.8694 141.608 34.1961L141.6 34.244L141.369 34.5792L136.302 34.72C136.341 35.2214 136.55 35.6298 136.927 35.9424C137.308 36.2551 137.786 36.41 138.361 36.41C138.769 36.41 139.22 36.3226 139.718 36.1452C140.214 35.9706 140.738 35.7086 141.287 35.3622ZM149.616 37.5929C149.159 37.852 148.709 38.0436 148.267 38.1675C147.824 38.2914 147.368 38.3533 146.901 38.3533C145.661 38.3533 144.645 37.9815 143.85 37.238C143.053 36.4972 142.656 35.5565 142.656 34.4159C142.656 33.2357 143.084 32.2415 143.94 31.4416C144.797 30.6417 145.87 30.2418 147.163 30.2418C147.636 30.2418 148.1 30.2953 148.551 30.4023C149.002 30.5093 149.438 30.6698 149.855 30.8868L149.565 33.1992C149.159 32.9513 148.768 32.7625 148.391 32.633C148.013 32.5034 147.664 32.4387 147.34 32.4387C146.757 32.4387 146.273 32.6161 145.887 32.971C145.501 33.3259 145.309 33.7652 145.309 34.2919C145.309 34.8552 145.487 35.3059 145.844 35.6467C146.202 35.9874 146.673 36.1565 147.256 36.1565C147.619 36.1565 148.008 36.0776 148.419 35.9227C148.833 35.7649 149.312 35.5114 149.855 35.1594L149.616 37.5929ZM153.959 38.0154H151.373V26.2367L153.959 25.8818V31.6275C154.322 31.2051 154.711 30.8924 155.128 30.6868C155.542 30.4812 155.992 30.377 156.477 30.377C157.263 30.377 157.86 30.6023 158.265 31.053C158.674 31.5036 158.876 32.1598 158.876 33.0273V38.0154H156.308V33.754C156.308 33.3625 156.229 33.0696 156.068 32.8724C155.911 32.6725 155.674 32.5739 155.359 32.5739C154.911 32.5739 154.564 32.726 154.322 33.0273C154.08 33.3315 153.959 33.7708 153.959 34.3482V38.0154Z" fill="#403200"/>
<path fill-rule="evenodd" clip-rule="evenodd" d="M27.7781 8.76123C38.4961 8.76123 47.1847 17.2828 47.1847 27.7946C47.1847 38.3065 38.4961 46.828 27.7781 46.828C17.0602 46.828 8.37158 38.3065 8.37158 27.7946C8.37158 17.2828 17.0602 8.76123 27.7781 8.76123Z" stroke="#403200" stroke-width="2.81276" stroke-miterlimit="22.9256"/>
<path d="M22.9871 35.8324C23.3156 35.922 23.5944 35.9817 23.8233 36.0216C24.0523 36.0614 24.2564 36.0813 24.4406 36.0813C25.3366 36.0813 26.0832 35.718 26.6855 34.9862C27.2879 34.2595 27.5865 33.3386 27.5865 32.2186C27.5865 31.2081 27.3376 30.3967 26.8349 29.7795C26.3371 29.1623 25.69 28.8536 24.8936 28.8536C24.6695 28.8536 24.4008 28.9083 24.0872 29.0229C23.7686 29.1324 23.4052 29.3066 22.9871 29.5406V35.8324ZM18.4175 39.4861V18.042L22.9871 17.4148V26.2901C23.5695 25.9914 24.1319 25.7674 24.6695 25.6131C25.2121 25.4638 25.7348 25.3891 26.2375 25.3891C28.0245 25.3891 29.4731 26.0213 30.5831 27.2906C31.6931 28.5599 32.2457 30.2125 32.2457 32.2534C32.2457 34.4137 31.5886 36.151 30.2695 37.4751C28.9554 38.7942 27.2182 39.4562 25.0727 39.4562C24.799 39.4562 24.4954 39.4413 24.1518 39.4065C23.8134 39.3716 23.4301 39.3218 23.002 39.2521L21.3394 38.8589L18.4175 39.4861Z" fill="#403200"/>
<path d="M32.6615 30.132V24.8656H30.75V21.4012H32.6615V17.4588L37.3206 16.8315V21.4012H40.4267V24.8656H37.3206V30.4456C37.3206 31.6303 37.4799 32.4914 37.8034 33.0191C38.127 33.5467 38.7343 34.0395 39.6203 34.4826L34.4236 34.8409C33.7715 34.5274 33.3185 34.0644 33.0547 33.4472C32.7909 32.8299 32.6615 31.7249 32.6615 30.132Z" fill="#403200"/>
</svg>
