<svg width="28" height="28" viewBox="0 0 28 28" fill="none" xmlns="http://www.w3.org/2000/svg">
<path d="M20.9767 12.5883V17.255C20.9767 17.5583 20.965 17.85 20.93 18.13C20.6617 21.28 18.8067 22.8433 15.3884 22.8433H14.9217C14.6301 22.8433 14.35 22.9833 14.175 23.2167L12.7751 25.0833C12.1567 25.9117 11.1534 25.9117 10.535 25.0833L9.13502 23.2167C8.98336 23.0183 8.64504 22.8433 8.38838 22.8433H7.92172C4.20005 22.8433 2.33337 21.9217 2.33337 17.255V12.5883C2.33337 9.17001 3.90838 7.31501 7.04672 7.04668C7.32672 7.01168 7.61838 7 7.92172 7H15.3884C19.11 7 20.9767 8.86668 20.9767 12.5883Z" stroke="#7C7C7C" stroke-width="1.5" stroke-miterlimit="10" stroke-linecap="round" stroke-linejoin="round"/>
<path d="M25.6433 7.92166V12.5883C25.6433 16.0183 24.0683 17.8617 20.93 18.13C20.965 17.85 20.9766 17.5583 20.9766 17.255V12.5883C20.9766 8.86666 19.11 6.99998 15.3883 6.99998H7.92163C7.6183 6.99998 7.32663 7.01166 7.04663 7.04666C7.31496 3.90832 9.16996 2.33331 12.5883 2.33331H20.055C23.7766 2.33331 25.6433 4.19999 25.6433 7.92166Z" stroke="#7C7C7C" stroke-width="1.5" stroke-miterlimit="10" stroke-linecap="round" stroke-linejoin="round"/>
<path d="M15.7447 15.4583H15.7552" stroke="#7C7C7C" stroke-width="2" stroke-linecap="round" stroke-linejoin="round"/>
<path d="M11.6615 15.4583H11.672" stroke="#7C7C7C" stroke-width="2" stroke-linecap="round" stroke-linejoin="round"/>
<path d="M7.57808 15.4583H7.58858" stroke="#7C7C7C" stroke-width="2" stroke-linecap="round" stroke-linejoin="round"/>
</svg>
