<svg width="154" height="150" viewBox="0 0 154 150" fill="#F2F1F7" xmlns="http://www.w3.org/2000/svg">
<path d="M43.0404 28.8291C20.7726 21.408 11.6711 3.95157 17.8566 1C24.0421 6.34093 39.8593 17.0228 53.6442 17.0228C56.5896 15.4767 63.3642 12.3846 77.0607 12.3846V149C67.5174 149 63.3642 145.065 62.4806 143.097C52.2303 143.097 49.6678 138.318 49.6678 135.929C54.6162 126.821 50.5514 116.954 47.9005 113.16C42.2452 104.727 40.5368 89.9687 40.3895 83.6439C35.4411 79.596 35.6767 63.6857 36.4131 56.2365C21.6712 51.4025 -7.0818 45.6952 3.11409 35.1538C15.8097 22.0281 25.3243 28.6583 34.5827 35.1098L34.6458 35.1538L43.0404 28.8291Z" fill="#F2F1F7" stroke="#F2F1F7"/>
<path d="M111.188 28.8291C133.455 21.408 142.557 3.95157 136.371 1C130.186 6.34093 114.369 17.0228 100.584 17.0228C97.6384 15.4767 90.8638 12.3846 77.1673 12.3846V149C86.7107 149 90.8638 145.065 91.7474 143.097C101.998 143.097 104.56 138.318 104.56 135.929C99.6119 126.821 103.677 116.954 106.328 113.16C111.983 104.727 113.691 89.9687 113.839 83.6439C118.787 79.596 118.551 63.6857 117.815 56.2365C132.327 51.4025 161.081 45.6775 150.885 35.1362C138.167 21.9875 128.672 28.7144 119.596 35.1439L119.582 35.1538L111.188 28.8291Z" fill="#F2F1F7" stroke="#F2F1F7"/>
</svg>
