<svg width="29" height="28" viewBox="0 0 29 28" fill="none" xmlns="http://www.w3.org/2000/svg">
<g clip-path="url(#clip0_103_10612)">
<path d="M6.16659 4.66675H10.8333L13.1666 10.5001L10.2499 12.2501C11.4994 14.7835 13.5498 16.834 16.0833 18.0834L17.8333 15.1667L23.6666 17.5001V22.1667C23.6666 22.7856 23.4208 23.3791 22.9832 23.8167C22.5456 24.2542 21.9521 24.5001 21.3333 24.5001C16.7824 24.2235 12.4901 22.291 9.26622 19.0671C6.04234 15.8432 4.10981 11.5509 3.83325 7.00008C3.83325 6.38124 4.07908 5.78775 4.51667 5.35017C4.95425 4.91258 5.54775 4.66675 6.16659 4.66675Z" stroke="#1B5DE0" stroke-width="1.7" stroke-linecap="round" stroke-linejoin="round"/>
<path d="M17.8333 8.16675C18.4521 8.16675 19.0456 8.41258 19.4832 8.85017C19.9208 9.28775 20.1666 9.88124 20.1666 10.5001" stroke="#1B5DE0" stroke-width="1.7" stroke-linecap="round" stroke-linejoin="round"/>
<path d="M17.8333 3.5C19.6898 3.5 21.4702 4.2375 22.783 5.55025C24.0958 6.86301 24.8333 8.64348 24.8333 10.5" stroke="#1B5DE0" stroke-width="1.7" stroke-linecap="round" stroke-linejoin="round"/>
</g>
<defs>
<clipPath id="clip0_103_10612">
<rect width="28" height="28" fill="white" transform="translate(0.333252)"/>
</clipPath>
</defs>
</svg>
