<svg width="728" height="810" viewBox="0 0 728 810" fill="none" xmlns="http://www.w3.org/2000/svg">
<g clip-path="url(#clip0_144_1616)">
<rect width="728" height="810" fill="white"/>
<path d="M294.674 539.597C298.145 539.597 301.316 537.521 302.866 534.225M294.674 539.597H152.178M294.674 539.597C301.479 539.597 305.909 531.989 302.866 525.523L230.537 371.901C228.986 368.607 225.816 366.53 222.345 366.53H79.8361C73.0332 366.53 68.6007 374.139 71.6438 380.602H71.656L143.985 534.225C145.536 537.521 148.707 539.597 152.178 539.597M269.774 270.379C266.303 270.379 263.133 272.456 261.582 275.75L143.985 525.523C140.942 531.989 145.375 539.597 152.178 539.597M188.267 97.3108C184.795 97.3108 181.625 99.3879 180.077 102.682L62.4803 352.457C59.4372 358.922 63.8697 366.53 70.6726 366.53H213.169C216.64 366.53 219.81 364.452 221.361 361.158L338.955 111.384C341.998 104.919 337.568 97.3108 330.763 97.3108M188.267 97.3108H330.763M188.267 97.3108C181.464 97.3108 177.034 104.919 180.077 111.384L252.406 265.007C253.957 268.301 257.127 270.379 260.598 270.379H403.107C409.91 270.379 414.342 262.77 411.299 256.305H411.287L338.958 102.682C337.407 99.3881 334.236 97.3108 330.763 97.3108M783.707 885.757C787.181 885.757 790.351 883.678 791.899 880.385L909.496 630.61C912.539 624.147 908.106 616.537 901.303 616.537H758.807C755.336 616.537 752.166 618.615 750.615 621.908L633.021 871.683C629.978 878.149 634.408 885.757 641.213 885.757M783.707 885.757H641.213M783.707 885.757C790.512 885.757 794.942 878.149 791.899 871.683L719.57 718.06C718.019 714.767 714.849 712.688 711.378 712.688H568.869C562.066 712.688 557.634 720.296 560.677 726.762H560.689L633.018 880.385C634.569 883.678 637.74 885.757 641.213 885.757M512.21 1155C515.681 1155 518.852 1152.92 520.402 1149.63L637.999 899.853C641.042 893.39 636.609 885.78 629.806 885.78H487.31C483.839 885.78 480.669 887.859 479.118 891.152L361.521 1140.93C358.478 1147.39 362.911 1155 369.714 1155M512.21 1155H369.714M512.21 1155C519.013 1155 523.443 1147.39 520.4 1140.93L448.071 987.304C446.52 984.01 443.349 981.932 439.878 981.932H297.372C290.567 981.932 286.137 989.539 289.18 996.005H289.19L361.521 1149.63C363.07 1152.92 366.243 1155 369.714 1155M566.088 270.378C569.559 270.378 572.729 268.301 574.278 265.007L691.874 15.2324C694.917 8.76725 690.485 1.1594 683.682 1.1594H541.185C537.714 1.1594 534.544 3.23666 532.993 6.53038L415.399 256.305C412.356 262.77 416.786 270.378 423.591 270.378M566.088 270.378H423.591M566.088 270.378C572.891 270.378 577.321 262.77 574.278 256.305L501.948 102.682C500.397 99.3876 497.227 97.3106 493.756 97.3106H351.247C344.445 97.3106 340.012 104.919 343.055 111.384H343.067L415.397 265.007C416.948 268.301 420.12 270.378 423.591 270.378M459.675 -171.921C456.204 -171.921 453.034 -169.843 451.483 -166.55L333.887 83.2254C330.844 89.6904 335.276 97.2984 342.079 97.2984H484.575C488.047 97.2984 491.217 95.2213 492.768 91.9273L610.364 -157.848C613.407 -164.312 608.975 -171.921 602.172 -171.921M459.675 -171.921H602.172M459.675 -171.921C452.872 -171.921 448.44 -164.312 451.483 -157.848L523.815 -4.22413C525.363 -0.93015 528.534 1.14708 532.007 1.14708H674.513C681.319 1.14708 685.749 -6.46103 682.706 -12.9259H682.693L610.364 -166.55C608.813 -169.843 605.643 -171.921 602.172 -171.921M810.505 443.458C813.976 443.458 817.147 441.382 818.698 438.086L936.291 188.313C939.335 181.848 934.905 174.24 928.099 174.24H785.605C782.132 174.24 778.961 176.317 777.413 179.611L659.817 429.385C656.773 435.851 661.206 443.458 668.009 443.458M810.505 443.458H668.009M810.505 443.458C817.308 443.458 821.738 435.851 818.695 429.385L746.366 275.762C744.815 272.468 741.644 270.391 738.173 270.391H595.665C588.862 270.391 584.429 277.999 587.475 284.464H587.485L659.814 438.086C661.365 441.382 664.538 443.458 668.009 443.458M160.852 539.62C157.381 539.62 154.21 541.699 152.66 544.992L35.0657 794.767C32.0216 801.233 36.4527 808.84 43.258 808.84H185.754C189.225 808.84 192.396 806.762 193.947 803.469L311.541 553.694C314.584 547.23 310.154 539.62 303.348 539.62M160.852 539.62H303.348M160.852 539.62C154.049 539.62 149.619 547.23 152.662 553.694L224.991 707.317C226.542 710.612 229.713 712.688 233.184 712.688H375.69C382.495 712.688 386.925 705.081 383.882 698.615H383.872L311.541 544.992C309.992 541.699 306.819 539.62 303.348 539.62M-83.2232 366.542C-86.6944 366.542 -89.8649 368.619 -91.4153 371.913L-209.011 621.688H-209.023C-212.066 628.152 -207.634 635.762 -200.83 635.762H-58.3226C-54.8512 635.762 -51.6809 633.683 -50.1302 630.39L67.4657 380.615C70.5087 374.149 66.0762 366.542 59.2733 366.542H-83.2232ZM-83.2232 366.542H59.2611C62.7322 366.542 65.9025 368.619 67.4534 371.913L139.783 525.537H139.807C142.85 532 138.418 539.61 131.615 539.61H-10.8931C-14.3645 539.61 -17.5348 537.531 -19.0855 534.238L-91.4153 380.615C-94.4584 374.149 -90.0269 366.542 -83.2232 366.542ZM424.514 275.762C426.065 272.468 429.235 270.391 432.706 270.391H575.202C582.005 270.391 586.438 277.999 583.395 284.464L465.798 534.238C464.247 537.531 461.077 539.61 457.606 539.61M89.8117 -89.8542L207.408 -339.628C208.959 -342.924 212.129 -345 215.6 -345H358.097C364.9 -345 369.332 -337.393 366.289 -330.927L248.693 -81.1524C247.142 -77.8584 243.972 -75.7812 240.5 -75.7812H98.0041C91.2012 -75.7812 86.7686 -83.3893 89.8117 -89.8542ZM438.621 -186.005L366.279 -339.628C364.728 -342.924 361.558 -345 358.087 -345H215.591C208.785 -345 204.355 -337.393 207.398 -330.927L279.728 -177.304C281.279 -174.01 284.449 -171.932 287.92 -171.932H430.429C437.231 -171.932 441.664 -179.542 438.621 -186.005ZM176.376 111.372L58.7792 361.147C57.2283 364.441 54.058 366.517 50.5868 366.517H-91.8855C-98.6894 366.517 -103.121 358.909 -100.078 352.444L17.5178 102.67C19.0682 99.376 22.2388 97.2989 25.7099 97.2989H168.205C175.011 97.2989 179.441 104.907 176.398 111.372H176.376ZM-172.42 207.523L-100.09 361.146C-98.5392 364.44 -95.3687 366.517 -91.8975 366.517H50.5991C57.402 366.517 61.8345 358.909 58.7914 352.444L-13.539 198.821C-15.0896 195.527 -18.2599 193.45 -21.7313 193.45H-164.239C-171.043 193.45 -175.475 201.058 -172.431 207.523H-172.42ZM-181.594 179.377L-63.999 -70.4102C-62.4486 -73.7042 -59.2781 -75.7814 -55.8067 -75.7814H86.6904C93.4933 -75.7814 97.9258 -68.1733 94.8827 -61.7084L-22.7139 188.066C-24.2643 191.36 -27.4349 193.437 -30.906 193.437H-173.402C-180.206 193.437 -184.638 185.829 -181.594 179.364V179.377ZM167.212 83.2256L94.8827 -70.3976C93.3318 -73.6916 90.1615 -75.7689 86.6904 -75.7689H-55.8062C-62.6098 -75.7689 -67.0414 -68.1607 -63.9983 -61.6958L8.33159 91.9275C9.88224 95.2214 13.0525 97.2985 16.524 97.2985H159.032C165.835 97.2985 170.267 89.6905 167.224 83.2256H167.212ZM664.888 457.531L547.294 707.306C545.743 710.6 542.572 712.678 539.101 712.678H396.605C389.8 712.678 385.37 705.068 388.413 698.605L506.007 448.83C507.557 445.537 510.728 443.458 514.199 443.458H656.695C663.501 443.458 667.931 451.065 664.888 457.531ZM316.081 553.694L388.41 707.319C389.961 710.613 393.131 712.688 396.602 712.688H539.099C545.904 712.688 550.334 705.081 547.291 698.615L474.962 544.992C473.411 541.699 470.241 539.623 466.769 539.623H324.261C317.458 539.623 313.025 547.23 316.069 553.694H316.081ZM655.714 429.385L583.385 275.762C581.834 272.468 578.664 270.391 575.193 270.391H432.696C425.891 270.391 421.461 277.999 424.504 284.464L496.833 438.086C498.384 441.382 501.554 443.458 505.026 443.458H647.534C654.337 443.458 658.77 435.851 655.727 429.385H655.714ZM551.513 698.615L669.11 448.84C670.661 445.547 673.831 443.471 677.302 443.471H819.798C826.601 443.471 831.034 451.079 827.991 457.545L710.394 707.319C708.843 710.613 705.673 712.688 702.202 712.688H559.706C552.903 712.688 548.47 705.081 551.513 698.615ZM900.32 602.453L827.991 448.83C826.44 445.537 823.269 443.458 819.798 443.458H677.302C670.499 443.458 666.067 451.065 669.11 457.531L741.439 611.154C742.99 614.448 746.16 616.526 749.631 616.526H892.14C898.943 616.526 903.375 608.919 900.332 602.453H900.32ZM280.024 967.848L397.618 718.073C399.169 714.777 402.339 712.702 405.81 712.702H548.306C555.112 712.702 559.542 720.309 556.499 726.775L438.905 976.55C437.354 979.843 434.184 981.921 430.712 981.921H288.216C281.411 981.921 276.981 974.311 280.024 967.848ZM628.818 871.696L556.489 718.073C554.938 714.777 551.768 712.702 548.297 712.702H405.8C398.997 712.702 394.565 720.309 397.608 726.775L469.937 880.398C471.488 883.691 474.658 885.77 478.13 885.77H620.638C627.441 885.77 631.874 878.16 628.83 871.696H628.818ZM447.784 -157.859L330.188 91.9149C328.637 95.2088 325.467 97.286 321.996 97.286H179.499C172.697 97.286 168.264 89.678 171.307 83.2131L288.903 -166.563C290.454 -169.856 293.625 -171.932 297.096 -171.932H439.592C446.395 -171.932 450.827 -164.325 447.784 -157.859ZM98.9875 -61.6961L171.317 91.9273C172.868 95.2212 176.038 97.2984 179.509 97.2984H322.005C328.808 97.2984 333.241 89.6903 330.198 83.2254L257.868 -70.3979C256.318 -73.6919 253.147 -75.7691 249.676 -75.7691H107.168C100.365 -75.7691 95.9321 -68.161 98.9752 -61.6961H98.9875ZM578.326 256.305L695.923 6.53061C697.473 3.23663 700.644 1.15967 704.115 1.15967H846.611C853.414 1.15967 857.847 8.76755 854.803 15.2327L737.207 265.007C735.656 268.301 732.486 270.378 729.015 270.378H586.518C579.716 270.378 575.283 262.77 578.326 256.305ZM927.121 160.154L854.791 6.53038C853.24 3.2364 850.07 1.1594 846.599 1.1594H704.103C697.3 1.1594 692.867 8.76725 695.91 15.2324L768.24 168.856C769.791 172.15 772.961 174.227 776.432 174.227H918.94C925.743 174.227 930.176 166.619 927.133 160.154H927.121ZM393.041 726.775L275.444 976.55C273.894 979.843 270.723 981.921 267.252 981.921H124.756C117.953 981.921 113.52 974.311 116.563 967.848L234.16 718.073C235.711 714.777 238.881 712.702 242.352 712.702H384.848C391.651 712.702 396.084 720.309 393.041 726.775ZM44.2438 822.927L116.576 976.55C118.124 979.843 121.294 981.921 124.766 981.921H267.262C274.067 981.921 278.497 974.311 275.454 967.848L203.125 814.225C201.574 810.929 198.404 808.853 194.932 808.853H52.4264C45.621 808.853 41.191 816.461 44.2341 822.927H44.2438ZM148.961 553.683L31.3648 803.458C29.8142 806.751 26.6439 808.827 23.1725 808.827H-119.312C-126.116 808.827 -130.548 801.22 -127.504 794.754L-9.90877 544.979C-8.35837 541.686 -5.18783 539.61 -1.71667 539.61H140.778C147.584 539.61 152.014 547.217 148.971 553.683H148.961ZM-199.835 649.846L-127.505 803.469C-125.955 806.764 -122.784 808.84 -119.313 808.84H23.183C29.9869 808.84 34.4174 801.233 31.3753 794.767L-40.9548 641.144C-42.5052 637.851 -45.6757 635.772 -49.1469 635.772H-191.655C-198.458 635.772 -202.89 643.382 -199.847 649.846H-199.835Z" stroke="url(#paint0_radial_144_1616)" stroke-width="1.34848" stroke-miterlimit="10"/>
<path fill-rule="evenodd" clip-rule="evenodd" d="M364.451 331C406.121 331 439.902 364.131 439.902 405C439.902 445.869 406.121 479 364.451 479C322.78 479 289 445.869 289 405C289 364.131 322.78 331 364.451 331Z" stroke="#FFCB04" stroke-width="8" stroke-miterlimit="22.9256"/>
<path d="M345.822 436.251C347.099 436.599 348.183 436.831 349.073 436.986C349.963 437.141 350.757 437.219 351.473 437.219C354.956 437.219 357.859 435.806 360.201 432.961C362.543 430.136 363.704 426.555 363.704 422.201C363.704 418.272 362.736 415.117 360.782 412.718C358.846 410.318 356.331 409.118 353.234 409.118C352.363 409.118 351.318 409.331 350.099 409.776C348.86 410.202 347.447 410.879 345.822 411.789V436.251ZM328.056 450.456V367.083L345.822 364.645V399.151C348.086 397.99 350.273 397.119 352.363 396.519C354.473 395.939 356.505 395.648 358.459 395.648C365.407 395.648 371.039 398.106 375.355 403.041C379.67 407.976 381.818 414.401 381.818 422.336C381.818 430.735 379.264 437.49 374.135 442.638C369.026 447.766 362.272 450.34 353.931 450.34C352.866 450.34 351.686 450.282 350.35 450.147C349.034 450.011 347.544 449.817 345.88 449.546L339.416 448.018L328.056 450.456Z" fill="#FFCB04"/>
<path d="M383.436 414.087V393.612H376.004V380.143H383.436V364.815L401.55 362.376V380.143H413.626V393.612H401.55V415.307C401.55 419.913 402.169 423.261 403.427 425.312C404.685 427.363 407.046 429.279 410.491 431.002L390.287 432.395C387.751 431.176 385.99 429.376 384.964 426.977C383.939 424.577 383.436 420.28 383.436 414.087Z" fill="#FFCB04"/>
</g>
<defs>
<radialGradient id="paint0_radial_144_1616" cx="0" cy="0" r="1" gradientUnits="userSpaceOnUse" gradientTransform="translate(361.913 402.838) rotate(90) scale(584.662 447.178)">
<stop stop-color="#FFCB04"/>
<stop offset="1" stop-color="#FFCB04" stop-opacity="0.25"/>
</radialGradient>
<clipPath id="clip0_144_1616">
<rect width="728" height="810" fill="white"/>
</clipPath>
</defs>
</svg>
