<svg width="728" height="810" viewBox="0 0 728 810" fill="none" xmlns="http://www.w3.org/2000/svg">
<g clip-path="url(#clip0_144_1616)">
<rect width="728" height="810" fill="white"/>
<path d="M308.739 512.677C311.516 512.677 314.052 511.017 315.293 508.38M308.739 512.677H194.742M308.739 512.677C314.183 512.677 317.728 506.592 315.293 501.419L257.43 378.521C256.189 375.885 253.653 374.224 250.876 374.224H136.869C131.427 374.224 127.881 380.311 130.315 385.482H130.325L188.188 508.38C189.429 511.017 191.965 512.677 194.742 512.677M288.819 297.303C286.042 297.303 283.506 298.965 282.265 301.6L188.188 501.419C185.754 506.592 189.3 512.677 194.742 512.677M223.613 158.849C220.836 158.849 218.3 160.51 217.061 163.145L122.984 362.965C120.55 368.137 124.096 374.224 129.538 374.224H243.535C246.312 374.224 248.848 372.562 250.089 369.927L344.164 170.107C346.599 164.935 343.055 158.849 337.61 158.849M223.613 158.849H337.61M223.613 158.849C218.171 158.849 214.627 164.935 217.061 170.107L274.925 293.006C276.166 295.641 278.702 297.303 281.479 297.303H395.486C400.928 297.303 404.474 291.216 402.039 286.044H402.03L344.166 163.146C342.925 160.51 340.389 158.849 337.61 158.849M699.966 789.605C702.744 789.605 705.281 787.942 706.519 785.308L800.596 585.488C803.031 580.317 799.485 574.229 794.043 574.229H680.046C677.269 574.229 674.732 575.892 673.492 578.527L579.417 778.347C576.982 783.519 580.526 789.605 585.97 789.605M699.966 789.605H585.97M699.966 789.605C705.41 789.605 708.954 783.519 706.519 778.347L648.656 655.448C647.415 652.814 644.879 651.151 642.102 651.151H528.095C522.653 651.151 519.107 657.237 521.541 662.409H521.551L579.415 785.308C580.655 787.942 583.192 789.605 585.97 789.605M482.768 1005C485.545 1005 488.081 1003.34 489.322 1000.7L583.399 800.883C585.833 795.712 582.287 789.624 576.845 789.624H462.848C460.071 789.624 457.535 791.287 456.294 793.921L362.217 993.741C359.783 998.914 363.329 1005 368.771 1005M482.768 1005H368.771M482.768 1005C488.21 1005 491.754 998.914 489.32 993.741L431.456 870.843C430.216 868.208 427.68 866.546 424.903 866.546H310.898C305.453 866.546 301.909 872.631 304.344 877.804H304.352L362.217 1000.7C363.456 1003.34 365.994 1005 368.771 1005M525.87 297.303C528.647 297.303 531.183 295.641 532.422 293.006L626.499 93.1859C628.934 88.0138 625.388 81.9275 619.945 81.9275H505.948C503.171 81.9275 500.635 83.5893 499.394 86.2243L405.319 286.044C402.885 291.216 406.429 297.303 411.873 297.303M525.87 297.303H411.873M525.87 297.303C531.312 297.303 534.857 291.216 532.422 286.044L474.559 163.145C473.318 160.51 470.782 158.848 468.005 158.848H353.998C348.556 158.848 345.01 164.935 347.444 170.107H347.454L405.317 293.005C406.558 295.641 409.096 297.303 411.873 297.303M440.74 -56.5372C437.963 -56.5372 435.427 -54.8743 434.186 -52.2398L340.109 147.58C337.675 152.752 341.221 158.839 346.663 158.839H460.66C463.437 158.839 465.973 157.177 467.214 154.542L561.291 -45.2785C563.726 -50.4492 560.18 -56.5372 554.737 -56.5372M440.74 -56.5372H554.737M440.74 -56.5372C435.298 -56.5372 431.752 -50.4492 434.186 -45.2785L492.052 77.6207C493.291 80.2559 495.827 81.9177 498.606 81.9177H612.611C618.055 81.9177 621.599 75.8312 619.164 70.6592H619.155L561.291 -52.2398C560.05 -54.8743 557.514 -56.5372 554.737 -56.5372M721.404 435.767C724.181 435.767 726.717 434.106 727.958 431.469L822.033 231.65C824.468 226.478 820.924 220.392 815.479 220.392H701.484C698.705 220.392 696.169 222.053 694.93 224.689L600.853 424.508C598.419 429.681 601.965 435.767 607.407 435.767M721.404 435.767H607.407M721.404 435.767C726.846 435.767 730.39 429.681 727.956 424.508L670.093 301.609C668.852 298.974 666.316 297.313 663.539 297.313H549.532C544.089 297.313 540.543 303.399 542.98 308.571H542.988L600.851 431.469C602.092 434.106 604.63 435.767 607.407 435.767M201.682 512.696C198.905 512.696 196.368 514.359 195.128 516.994L101.053 716.814C98.6173 721.986 102.162 728.072 107.606 728.072H221.603C224.38 728.072 226.917 726.409 228.157 723.775L322.232 523.955C324.667 518.784 321.123 512.696 315.679 512.696M201.682 512.696H315.679M201.682 512.696C196.239 512.696 192.695 518.784 195.13 523.955L252.993 646.853C254.234 649.49 256.77 651.151 259.547 651.151H373.552C378.996 651.151 382.54 645.065 380.106 639.892H380.098L322.232 516.994C320.994 514.359 318.455 512.696 315.679 512.696M6.4214 374.233C3.64447 374.233 1.10805 375.895 -0.132278 378.53L-94.2088 578.351H-94.218C-96.6526 583.521 -93.1072 589.609 -87.6642 589.609H26.3419C29.119 589.609 31.6553 587.947 32.8958 585.312L126.973 385.492C129.407 380.319 125.861 374.233 120.419 374.233H6.4214ZM6.4214 374.233H120.409C123.186 374.233 125.722 375.895 126.963 378.53L184.826 501.429H184.846C187.28 506.6 183.734 512.688 178.292 512.688H64.2855C61.5084 512.688 58.9721 511.025 57.7316 508.391L-0.132278 385.492C-2.56674 380.319 0.978499 374.233 6.4214 374.233ZM412.611 301.609C413.852 298.974 416.388 297.312 419.165 297.312H533.162C538.604 297.312 542.15 303.399 539.716 308.571L445.639 508.391C444.398 511.025 441.862 512.688 439.085 512.688M144.849 9.11664L238.926 -190.703C240.167 -193.339 242.703 -195 245.48 -195H359.477C364.92 -195 368.466 -188.914 366.031 -183.741L271.954 16.0781C270.713 18.7133 268.177 20.3751 265.4 20.3751H151.403C145.961 20.3751 142.415 14.2886 144.849 9.11664ZM423.897 -67.8042L366.023 -190.703C364.783 -193.339 362.246 -195 359.47 -195H245.473C240.028 -195 236.484 -188.914 238.919 -183.741L296.782 -60.8429C298.023 -58.2084 300.559 -56.5456 303.336 -56.5456H417.343C422.785 -56.5456 426.331 -62.6335 423.897 -67.8042ZM214.1 170.097L120.023 369.917C118.783 372.552 116.246 374.214 113.469 374.214H-0.5084C-5.9515 374.214 -9.49674 368.128 -7.06228 362.956L87.0142 163.136C88.2546 160.501 90.791 158.839 93.5679 158.839H207.564C213.008 158.839 216.553 164.925 214.118 170.097H214.1ZM-64.9358 247.018L-7.07186 369.917C-5.83134 372.552 -3.29493 374.214 -0.517998 374.214H113.479C118.922 374.214 122.468 368.128 120.033 362.956L62.1688 240.057C60.9283 237.422 58.3921 235.76 55.615 235.76H-58.3913C-63.8342 235.76 -67.3796 241.846 -64.945 247.018H-64.9358ZM-72.2755 224.501L21.8008 24.6718C23.0411 22.0367 25.5775 20.3749 28.3547 20.3749H142.352C147.795 20.3749 151.341 26.4613 148.906 31.6333L54.8288 231.453C53.5885 234.088 51.0521 235.75 48.2752 235.75H-65.7219C-71.1648 235.75 -74.7102 229.663 -72.2755 224.492V224.501ZM206.77 147.581L148.906 24.6819C147.665 22.0467 145.129 20.3849 142.352 20.3849H28.355C22.9121 20.3849 19.3669 26.4714 21.8014 31.6433L79.6653 154.542C80.9058 157.177 83.442 158.839 86.2191 158.839H200.226C205.668 158.839 209.214 152.752 206.779 147.581H206.77ZM604.91 447.025L510.835 646.845C509.594 649.48 507.058 651.142 504.281 651.142H390.284C384.84 651.142 381.296 645.054 383.73 639.884L477.805 440.064C479.046 437.429 481.582 435.767 484.359 435.767H598.356C603.8 435.767 607.344 441.852 604.91 447.025ZM325.865 523.955L383.728 646.855C384.969 649.49 387.505 651.151 390.282 651.151H504.279C509.723 651.151 513.267 645.065 510.833 639.892L452.969 516.994C451.729 514.359 449.192 512.698 446.416 512.698H332.409C326.966 512.698 323.42 518.784 325.855 523.955H325.865ZM597.571 424.508L539.708 301.609C538.467 298.974 535.931 297.312 533.154 297.312H419.157C413.713 297.312 410.169 303.399 412.603 308.571L470.467 431.469C471.707 434.106 474.243 435.767 477.02 435.767H591.027C596.47 435.767 600.016 429.681 597.581 424.508H597.571ZM514.211 639.892L608.288 440.072C609.528 437.438 612.065 435.777 614.842 435.777H728.839C734.281 435.777 737.827 441.863 735.392 447.036L641.315 646.855C640.075 649.49 637.538 651.151 634.761 651.151H520.764C515.322 651.151 511.776 645.065 514.211 639.892ZM793.256 562.962L735.392 440.064C734.152 437.429 731.615 435.767 728.839 435.767H614.842C609.399 435.767 605.853 441.852 608.288 447.025L666.151 569.924C667.392 572.558 669.928 574.221 672.705 574.221H786.712C792.154 574.221 795.7 568.135 793.266 562.962H793.256ZM297.019 855.278L391.094 655.459C392.335 652.822 394.871 651.161 397.648 651.161H511.645C517.089 651.161 520.633 657.247 518.199 662.42L424.124 862.24C422.883 864.874 420.347 866.537 417.57 866.537H303.573C298.129 866.537 294.584 860.449 297.019 855.278ZM576.055 778.357L518.191 655.459C516.95 652.822 514.414 651.161 511.637 651.161H397.64C392.198 651.161 388.652 657.247 391.086 662.42L448.95 785.318C450.19 787.953 452.727 789.616 455.504 789.616H569.51C574.953 789.616 578.499 783.528 576.064 778.357H576.055ZM431.227 -45.2869L337.15 154.532C335.91 157.167 333.373 158.829 330.596 158.829H216.599C211.157 158.829 207.611 152.742 210.046 147.57L304.123 -52.2503C305.363 -54.8848 307.9 -56.5456 310.677 -56.5456H424.674C430.116 -56.5456 433.662 -50.4597 431.227 -45.2869ZM152.19 31.6431L210.053 154.542C211.294 157.177 213.83 158.839 216.607 158.839H330.604C336.047 158.839 339.593 152.752 337.158 147.58L279.295 24.6817C278.054 22.0465 275.518 20.3847 272.741 20.3847H158.734C153.292 20.3847 149.746 26.4712 152.18 31.6431H152.19ZM535.661 286.044L629.738 86.2245C630.979 83.5893 633.515 81.9277 636.292 81.9277H750.289C755.731 81.9277 759.277 88.014 756.843 93.1862L662.766 293.006C661.525 295.641 658.989 297.303 656.212 297.303H542.215C536.772 297.303 533.226 291.216 535.661 286.044ZM814.696 209.123L756.833 86.2243C755.592 83.5891 753.056 81.9275 750.279 81.9275H636.282C630.84 81.9275 627.294 88.0138 629.728 93.1859L687.592 216.085C688.832 218.72 691.369 220.381 694.146 220.381H808.152C813.595 220.381 817.141 214.295 814.706 209.123H814.696ZM387.433 662.42L293.355 862.24C292.115 864.874 289.579 866.537 286.802 866.537H172.805C167.362 866.537 163.816 860.449 166.251 855.278L260.328 655.459C261.569 652.822 264.105 651.161 266.882 651.161H380.879C386.321 651.161 389.867 657.247 387.433 662.42ZM108.395 739.341L166.261 862.24C167.499 864.874 170.035 866.537 172.812 866.537H286.809C292.254 866.537 295.798 860.449 293.363 855.278L235.5 732.38C234.259 729.743 231.723 728.083 228.946 728.083H114.941C109.497 728.083 105.953 734.169 108.387 739.341H108.395ZM192.169 523.947L98.0918 723.766C96.8513 726.401 94.3151 728.062 91.5379 728.062H-22.4497C-27.8928 728.062 -31.438 721.976 -29.0036 716.803L65.073 516.983C66.3133 514.349 68.8497 512.688 71.6266 512.688H185.623C191.067 512.688 194.611 518.774 192.177 523.947H192.169ZM-86.8683 600.876L-29.0043 723.775C-27.7638 726.411 -25.2276 728.072 -22.4505 728.072H91.5464C96.9895 728.072 100.534 721.986 98.1003 716.814L40.2362 593.915C38.9958 591.281 36.4594 589.618 33.6825 589.618H-80.3238C-85.7667 589.618 -89.3121 595.706 -86.8775 600.876H-86.8683Z" stroke="url(#paint0_radial_144_1616)" stroke-width="1.34848" stroke-miterlimit="10"/>
<path d="M329.951 436.35V379.241H340.046V400.601H340.464C340.985 399.56 341.719 398.454 342.667 397.283C343.615 396.093 344.898 395.08 346.515 394.243C348.133 393.388 350.196 392.961 352.706 392.961C356.015 392.961 358.999 393.806 361.657 395.498C364.334 397.171 366.453 399.653 368.015 402.944C369.595 406.215 370.385 410.231 370.385 414.99C370.385 419.693 369.614 423.69 368.071 426.981C366.528 430.271 364.427 432.781 361.769 434.51C359.11 436.239 356.099 437.103 352.734 437.103C350.28 437.103 348.244 436.694 346.627 435.876C345.009 435.058 343.708 434.073 342.723 432.92C341.756 431.749 341.003 430.643 340.464 429.602H339.878V436.35H329.951ZM339.851 414.934C339.851 417.704 340.241 420.13 341.022 422.212C341.821 424.295 342.964 425.921 344.452 427.092C345.957 428.245 347.779 428.821 349.917 428.821C352.148 428.821 354.016 428.226 355.522 427.037C357.028 425.828 358.162 424.183 358.924 422.101C359.705 420 360.095 417.611 360.095 414.934C360.095 412.276 359.714 409.915 358.952 407.851C358.19 405.788 357.056 404.17 355.55 402.999C354.044 401.828 352.167 401.243 349.917 401.243C347.761 401.243 345.93 401.81 344.424 402.944C342.918 404.078 341.775 405.667 340.994 407.712C340.232 409.757 339.851 412.164 339.851 414.934Z" fill="#FFCB04"/>
<path d="M393.225 382.168V389.976H368.602V382.168H393.225ZM374.681 371.906H384.776V412.117C384.776 413.474 384.98 414.515 385.389 415.24C385.817 415.947 386.375 416.43 387.063 416.69C387.75 416.95 388.513 417.081 389.349 417.081C389.981 417.081 390.558 417.034 391.078 416.941C391.617 416.848 392.026 416.764 392.305 416.69L394.006 424.582C393.467 424.768 392.695 424.972 391.692 425.195C390.706 425.418 389.498 425.548 388.066 425.586C385.538 425.66 383.261 425.279 381.234 424.442C379.208 423.587 377.6 422.267 376.41 420.483C375.239 418.698 374.663 416.467 374.681 413.79V371.906Z" fill="#FFCB04"/>
<path d="M312.739 378.548C314.962 374.522 317.66 370.776 320.775 367.393C341.868 344.477 377.115 342.737 399.501 363.507C421.886 384.278 422.934 419.692 401.841 442.607C380.748 465.523 345.501 467.263 323.116 446.493C318.625 442.326 314.869 437.424 312 431.988" stroke="#FFCB04" stroke-width="9.24419" stroke-miterlimit="22.9256"/>
</g>
<defs>
<radialGradient id="paint0_radial_144_1616" cx="0" cy="0" r="1" gradientUnits="userSpaceOnUse" gradientTransform="translate(362.53 403.27) rotate(90) scale(467.73 357.742)">
<stop stop-color="#FFCB04"/>
<stop offset="1" stop-color="#FFCB04" stop-opacity="0.25"/>
</radialGradient>
<clipPath id="clip0_144_1616">
<rect width="728" height="810" fill="white"/>
</clipPath>
</defs>
</svg>
