<svg width="375" height="152" viewBox="0 0 375 152" fill="none" xmlns="http://www.w3.org/2000/svg">
<g clip-path="url(#clip0_708_7737)">
<rect width="375" height="152" fill="white"/>
<path d="M157.692 134.325C159.196 134.325 160.57 133.426 161.242 131.998M157.692 134.325H95.9437M157.692 134.325C160.641 134.325 162.561 131.029 161.242 128.227L129.899 61.657C129.227 60.2296 127.854 59.3295 126.349 59.3295H64.5956C61.6477 59.3295 59.727 62.6268 61.0456 65.4276H61.0509L92.3936 131.998C93.0657 133.426 94.4395 134.325 95.9437 134.325M146.902 17.664C145.398 17.664 144.024 18.5642 143.352 19.9916L92.3936 128.227C91.075 131.029 92.9958 134.325 95.9437 134.325M111.582 -57.332C110.078 -57.332 108.704 -56.4319 108.033 -55.0045L57.0748 53.2312C55.7561 56.0327 57.6769 59.3295 60.6248 59.3295H122.373C123.877 59.3295 125.251 58.4294 125.923 57.002L176.881 -51.2337C178.199 -54.0352 176.28 -57.332 173.331 -57.332M111.582 -57.332H173.331M111.582 -57.332C108.634 -57.332 106.715 -54.0351 108.033 -51.2336L139.376 15.3365C140.048 16.7639 141.422 17.664 142.926 17.664H204.68C207.628 17.664 209.548 14.3672 208.23 11.5657H208.224L176.882 -55.0044C176.21 -56.4318 174.836 -57.332 173.331 -57.332M369.606 284.328C371.112 284.328 372.485 283.427 373.156 282L424.115 173.764C425.433 170.964 423.513 167.666 420.565 167.666H358.816C357.312 167.666 355.938 168.567 355.266 169.994L304.309 278.229C302.99 281.031 304.91 284.328 307.859 284.328M369.606 284.328H307.859M369.606 284.328C372.555 284.328 374.475 281.031 373.156 278.229L341.814 211.659C341.142 210.232 339.768 209.332 338.264 209.332H276.51C273.562 209.332 271.641 212.628 272.96 215.43H272.965L304.308 282C304.98 283.427 306.354 284.328 307.859 284.328M251.958 401C253.462 401 254.836 400.1 255.508 398.672L306.466 290.436C307.785 287.636 305.864 284.338 302.916 284.338H241.168C239.664 284.338 238.29 285.239 237.618 286.666L186.659 394.902C185.341 397.703 187.261 401 190.209 401M251.958 401H190.209M251.958 401C254.906 401 256.825 397.703 255.507 394.902L224.164 328.332C223.492 326.905 222.118 326.004 220.614 326.004H158.861C155.912 326.004 153.993 329.3 155.311 332.102H155.316L186.659 398.672C187.33 400.099 188.705 401 190.209 401M275.305 17.6639C276.809 17.6639 278.183 16.7638 278.854 15.3364L329.812 -92.8993C331.131 -95.7009 329.21 -98.9976 326.262 -98.9976H264.514C263.01 -98.9976 261.636 -98.0974 260.964 -96.6702L210.006 11.5656C208.688 14.3671 210.607 17.6639 213.556 17.6639M275.305 17.6639H213.556M275.305 17.6639C278.253 17.6639 280.172 14.367 278.854 11.5655L247.511 -55.0046C246.839 -56.432 245.465 -57.3321 243.961 -57.3321H182.207C179.259 -57.3321 177.339 -54.0353 178.657 -51.2338H178.662L210.005 15.3363C210.677 16.7637 212.052 17.6639 213.556 17.6639M229.193 -173.999C227.688 -173.999 226.315 -173.099 225.643 -171.672L174.684 -63.4357C173.366 -60.6342 175.286 -57.3373 178.234 -57.3373H239.983C241.487 -57.3373 242.861 -58.2374 243.533 -59.6648L294.491 -167.901C295.81 -170.702 293.889 -173.999 290.941 -173.999M229.193 -173.999H290.941M229.193 -173.999C226.245 -173.999 224.324 -170.702 225.643 -167.901L256.986 -101.33C257.657 -99.9031 259.031 -99.0029 260.536 -99.0029H322.289C325.238 -99.0029 327.158 -102.3 325.839 -105.101H325.834L294.491 -171.672C293.819 -173.099 292.445 -173.999 290.941 -173.999M381.219 92.6652C382.723 92.6652 384.097 91.7656 384.769 90.3375L435.726 -17.8979C437.045 -20.6994 435.125 -23.9962 432.176 -23.9962H370.429C368.924 -23.9962 367.55 -23.0961 366.879 -21.6687L315.92 86.5668C314.602 89.3687 316.523 92.6652 319.47 92.6652M381.219 92.6652H319.47M381.219 92.6652C384.167 92.6652 386.087 89.3687 384.768 86.5668L353.425 19.9968C352.753 18.5694 351.379 17.6694 349.875 17.6694H288.121C285.173 17.6694 283.253 20.9661 284.572 23.7677H284.577L315.919 90.3375C316.591 91.7656 317.966 92.6652 319.47 92.6652M99.7025 134.336C98.1983 134.336 96.8245 135.236 96.1525 136.663L45.1951 244.899C43.876 247.701 45.7962 250.997 48.7451 250.997H110.494C111.998 250.997 113.371 250.097 114.044 248.67L165.001 140.434C166.32 137.633 164.4 134.336 161.451 134.336M99.7025 134.336H161.451M99.7025 134.336C96.7546 134.336 94.8349 137.633 96.1536 140.434L127.496 207.004C128.168 208.432 129.542 209.332 131.046 209.332H192.799C195.748 209.332 197.668 206.035 196.349 203.233H196.345L165.001 136.663C164.33 135.236 162.955 134.336 161.451 134.336M-6.06341 59.3347C-7.56758 59.3347 -8.94147 60.2349 -9.61332 61.6622L-60.5714 169.898H-60.5764C-61.8951 172.699 -59.9747 175.997 -57.0265 175.997H4.72687C6.23115 175.997 7.60494 175.096 8.27689 173.669L59.2351 65.4332C60.5538 62.6313 58.633 59.3347 55.6851 59.3347H-6.06341ZM-6.06341 59.3347H55.6798C57.184 59.3347 58.5578 60.2349 59.2298 61.6622L90.5725 128.233H90.5831C91.9018 131.033 89.9811 134.331 87.0331 134.331H25.2796C23.7754 134.331 22.4016 133.43 21.7296 132.003L-9.61332 65.4332C-10.932 62.6313 -9.01164 59.3347 -6.06341 59.3347ZM213.956 19.9968C214.628 18.5694 216.002 17.6692 217.506 17.6692H279.254C282.202 17.6692 284.123 20.9661 282.804 23.7676L231.846 132.003C231.174 133.43 229.8 134.331 228.296 134.331M68.9184 -138.437L119.877 -246.672C120.549 -248.1 121.923 -249 123.427 -249H185.175C188.123 -249 190.044 -245.703 188.725 -242.902L137.767 -134.666C137.095 -133.239 135.721 -132.339 134.217 -132.339H72.4684C69.5205 -132.339 67.5997 -135.635 68.9184 -138.437ZM220.069 -180.102L188.721 -246.672C188.049 -248.1 186.675 -249 185.171 -249H123.423C120.474 -249 118.554 -245.703 119.873 -242.902L151.215 -176.332C151.887 -174.905 153.261 -174.004 154.765 -174.004H216.519C219.467 -174.004 221.388 -177.301 220.069 -180.102ZM106.429 -51.2389L55.471 56.9968C54.7989 58.4242 53.4251 59.3243 51.921 59.3243H-9.81705C-12.7654 59.3243 -14.6857 56.0274 -13.3671 53.2259L37.591 -55.0097C38.2629 -56.4371 39.6368 -57.3372 41.141 -57.3372H102.889C105.838 -57.3372 107.758 -54.0404 106.439 -51.2389H106.429ZM-44.7152 -9.57336L-13.3723 56.9967C-12.7003 58.4241 -11.3264 59.3243 -9.82225 59.3243H51.9263C54.8742 59.3243 56.7949 56.0274 55.4763 53.2259L24.1331 -13.3441C23.4612 -14.7715 22.0874 -15.6717 20.5831 -15.6717H-41.1703C-44.1185 -15.6717 -46.039 -12.3748 -44.7202 -9.57336H-44.7152ZM-48.6909 -21.7701L2.26709 -130.011C2.93893 -131.438 4.31283 -132.339 5.81711 -132.339H67.5658C70.5137 -132.339 72.4345 -129.042 71.1158 -126.24L20.1573 -18.0046C19.4855 -16.5772 18.1116 -15.6771 16.6074 -15.6771H-45.141C-48.0893 -15.6771 -50.0097 -18.974 -48.6909 -21.7754V-21.7701ZM102.459 -63.4356L71.1158 -130.006C70.4438 -131.433 69.07 -132.333 67.5658 -132.333H5.81731C2.86907 -132.333 0.948743 -129.036 2.26741 -126.235L33.6103 -59.6647C34.2823 -58.2374 35.6561 -57.3373 37.1604 -57.3373H98.9138C101.862 -57.3373 103.783 -60.6341 102.464 -63.4356H102.459ZM318.118 98.7636L267.161 206.999C266.488 208.426 265.115 209.327 263.611 209.327H201.862C198.913 209.327 196.993 206.029 198.312 203.229L249.269 94.9929C249.942 93.5658 251.315 92.6652 252.819 92.6652H314.568C317.517 92.6652 319.437 95.9617 318.118 98.7636ZM166.968 140.434L198.311 207.005C198.983 208.432 200.357 209.332 201.861 209.332H263.609C266.558 209.332 268.478 206.035 267.159 203.233L235.817 136.663C235.145 135.236 233.771 134.337 232.267 134.337H170.513C167.565 134.337 165.644 137.633 166.963 140.434H166.968ZM314.143 86.5668L282.8 19.9968C282.128 18.5694 280.754 17.6692 279.25 17.6692H217.502C214.553 17.6692 212.633 20.9661 213.952 23.7676L245.294 90.3375C245.966 91.7656 247.34 92.6652 248.844 92.6652H310.598C313.546 92.6652 315.467 89.3687 314.148 86.5668H314.143ZM268.989 203.233L319.948 94.9975C320.62 93.5704 321.993 92.6708 323.498 92.6708H385.246C388.194 92.6708 390.115 95.9674 388.796 98.7693L337.837 207.005C337.165 208.432 335.792 209.332 334.287 209.332H272.539C269.591 209.332 267.67 206.035 268.989 203.233ZM420.139 161.563L388.796 94.9929C388.124 93.5658 386.75 92.6652 385.246 92.6652H323.498C320.55 92.6652 318.629 95.9617 319.948 98.7636L351.29 165.334C351.962 166.761 353.336 167.661 354.84 167.661H416.594C419.542 167.661 421.463 164.365 420.144 161.563H420.139ZM151.344 319.901L202.301 211.665C202.973 210.237 204.347 209.337 205.851 209.337H267.599C270.548 209.337 272.468 212.634 271.149 215.436L220.192 323.672C219.52 325.099 218.146 325.999 216.642 325.999H154.894C151.945 325.999 150.025 322.702 151.344 319.901ZM302.488 278.235L271.145 211.665C270.473 210.237 269.099 209.337 267.595 209.337H205.847C202.899 209.337 200.978 212.634 202.297 215.436L233.639 282.006C234.312 283.433 235.685 284.334 237.189 284.334H298.943C301.891 284.334 303.812 281.036 302.493 278.235H302.488ZM224.04 -167.905L173.081 -59.6702C172.409 -58.2428 171.036 -57.3427 169.531 -57.3427H107.783C104.835 -57.3427 102.914 -60.6395 104.233 -63.441L155.191 -171.677C155.864 -173.104 157.237 -174.004 158.742 -174.004H220.49C223.438 -174.004 225.359 -170.707 224.04 -167.905ZM72.8946 -126.235L104.237 -59.6648C104.909 -58.2375 106.283 -57.3374 107.787 -57.3374H169.536C172.484 -57.3374 174.404 -60.6342 173.086 -63.4357L141.743 -130.006C141.071 -131.433 139.697 -132.333 138.193 -132.333H76.4393C73.4913 -132.333 71.5706 -129.036 72.8893 -126.235H72.8946ZM280.608 11.5656L331.566 -96.6701C332.238 -98.0975 333.612 -98.9975 335.116 -98.9975H396.865C399.813 -98.9975 401.733 -95.7007 400.415 -92.8991L349.456 15.3365C348.784 16.7639 347.411 17.6639 345.906 17.6639H284.158C281.21 17.6639 279.289 14.3672 280.608 11.5656ZM431.752 -30.1001L400.41 -96.6702C399.737 -98.0976 398.364 -98.9976 396.86 -98.9976H335.111C332.163 -98.9976 330.242 -95.7009 331.561 -92.8993L362.904 -26.3292C363.576 -24.9018 364.95 -24.0018 366.454 -24.0018H428.208C431.155 -24.0018 433.076 -27.2985 431.758 -30.1001H431.752ZM200.318 215.436L149.359 323.672C148.687 325.099 147.313 325.999 145.809 325.999H84.0608C81.1129 325.999 79.1922 322.702 80.5108 319.901L131.469 211.665C132.141 210.237 133.515 209.337 135.019 209.337H196.768C199.716 209.337 201.636 212.634 200.318 215.436ZM49.1723 257.102L80.5161 323.672C81.1871 325.099 82.5609 325.999 84.0651 325.999H145.813C148.762 325.999 150.682 322.702 149.363 319.901L118.021 253.331C117.349 251.903 115.975 251.003 114.471 251.003H52.7181C49.7691 251.003 47.8494 254.3 49.1681 257.102H49.1723ZM94.5498 140.429L43.5914 248.665C42.9195 250.092 41.5457 250.992 40.0414 250.992H-21.7019C-24.6503 250.992 -26.5706 247.695 -25.2519 244.893L25.7062 136.658C26.378 135.231 27.7519 134.331 29.2561 134.331H91.004C93.953 134.331 95.8727 137.627 94.554 140.429H94.5498ZM-56.5953 182.1L-25.2524 248.67C-24.5804 250.098 -23.2066 250.997 -21.7023 250.997H40.046C42.9943 250.997 44.9142 247.701 43.596 244.899L12.2529 178.329C11.5811 176.902 10.2072 176.001 8.70302 176.001H-53.0504C-55.9986 176.001 -57.919 179.299 -56.6003 182.1H-56.5953Z" stroke="url(#paint0_radial_708_7737)" stroke-width="1.34848" stroke-miterlimit="10"/>
<path fill-rule="evenodd" clip-rule="evenodd" d="M187.392 56C198.654 56 207.784 64.9543 207.784 76C207.784 87.0457 198.654 96 187.392 96C176.13 96 167 87.0457 167 76C167 64.9543 176.13 56 187.392 56Z" stroke="#FFCB04" stroke-width="2.58993" stroke-miterlimit="22.9256"/>
<path d="M182.358 84.4455C182.704 84.5397 182.996 84.6024 183.237 84.6443C183.478 84.6861 183.692 84.707 183.886 84.707C184.827 84.707 185.612 84.3252 186.245 83.5563C186.877 82.7927 187.191 81.825 187.191 80.6482C187.191 79.5864 186.93 78.7337 186.401 78.0851C185.878 77.4366 185.198 77.1123 184.362 77.1123C184.126 77.1123 183.844 77.1698 183.514 77.2901C183.18 77.4052 182.798 77.5883 182.358 77.8341V84.4455ZM177.557 88.2847V65.7516L182.358 65.0925V74.4186C182.97 74.1047 183.561 73.8693 184.126 73.7072C184.696 73.5503 185.246 73.4718 185.774 73.4718C187.652 73.4718 189.174 74.1361 190.34 75.4699C191.506 76.8037 192.087 78.5402 192.087 80.6847C192.087 82.9548 191.397 84.7802 190.011 86.1716C188.63 87.5577 186.804 88.2534 184.55 88.2534C184.262 88.2534 183.943 88.2376 183.582 88.201C183.227 88.1644 182.824 88.1121 182.374 88.0389L180.627 87.6257L177.557 88.2847Z" fill="#FFCB04"/>
<path d="M192.524 78.4557V72.9218H190.515V69.2814H192.524V65.1388L197.419 64.4797V69.2814H200.683V72.9218H197.419V78.7852C197.419 80.0301 197.587 80.9349 197.927 81.4894C198.267 82.0438 198.905 82.5616 199.836 83.0272L194.375 83.4037C193.69 83.0742 193.214 82.5878 192.937 81.9392C192.66 81.2906 192.524 80.1294 192.524 78.4557Z" fill="#FFCB04"/>
</g>
<defs>
<radialGradient id="paint0_radial_708_7737" cx="0" cy="0" r="1" gradientUnits="userSpaceOnUse" gradientTransform="translate(186.829 75.063) rotate(90) scale(253.354 193.777)">
<stop stop-color="#FFCB04"/>
<stop offset="0.352526" stop-color="#FFCB04" stop-opacity="0.25"/>
</radialGradient>
<clipPath id="clip0_708_7737">
<rect width="375" height="152" fill="white"/>
</clipPath>
</defs>
</svg>
