<svg width="40" height="40" viewBox="0 0 40 40" fill="none" xmlns="http://www.w3.org/2000/svg">
<path d="M18.7636 9.07041C19.1528 7.87271 20.8472 7.87271 21.2364 9.07041L22.702 13.5811C23.0634 14.6935 24.1001 15.4467 25.2698 15.4467L30.0126 15.4467C31.2719 15.4467 31.7955 17.0582 30.7767 17.7984L26.9397 20.5862C25.9934 21.2737 25.5974 22.4924 25.9589 23.6049L27.4245 28.1155C27.8137 29.3132 26.4428 30.3092 25.424 29.5689L21.587 26.7812C20.6407 26.0937 19.3593 26.0937 18.413 26.7812L14.576 29.5689C13.5572 30.3092 12.1863 29.3132 12.5755 28.1155L14.0411 23.6049C14.4026 22.4924 14.0066 21.2737 13.0603 20.5862L9.22328 17.7984C8.20446 17.0582 8.72806 15.4467 9.9874 15.4467L14.7302 15.4467C15.8999 15.4467 16.9366 14.6935 17.298 13.5811L18.7636 9.07041Z" stroke="#7C7C7C" stroke-width="1.4"/>
</svg>
